<svg width="1080" height="466" viewBox="0 0 1080 466" fill="none" xmlns="http://www.w3.org/2000/svg">
<rect width="1079.06" height="465" transform="translate(0 0.672852)" fill="white"/>
<path d="M150.343 71.3515V76.963C148.477 78.2196 146.915 78.6312 145.613 78.6312C141.925 78.6312 138.801 77.2229 138.801 70.7882V66.0651H132.249C130.014 73.8648 124.178 78.6529 114.915 78.6529V72.7165C120.382 72.7165 123.723 70.1599 125.437 66.0651H121.835V60.1937H126.673C126.717 59.457 126.782 58.7421 126.782 57.9621C126.782 52.3507 124.699 46.6743 118.191 46.6743C114.481 46.6743 111.465 48.7975 111.465 52.7623C111.465 54.2139 112.55 56.2505 113.808 57.0305L109.534 61.7103C106.888 60.042 105 55.8389 105 52.7623C104.978 45.461 111.227 40.6729 118.147 40.6729C128.04 40.6729 133.247 48.0609 133.247 57.9404C133.247 58.7204 133.247 59.457 133.204 60.172H138.779V41.2362H145.288V70.7666C145.288 72.0232 146.025 72.7381 147.262 72.7381C148.412 72.7381 149.605 72.1748 150.343 71.3299V71.3515Z" fill="#C35686"/>
<path d="M163.859 73.6485C165.834 73.6485 167.873 73.1285 169.435 71.7853V77.505C167.829 78.285 165.638 78.6533 163.859 78.6533C157.611 78.6533 152.404 74.7101 152.404 68.1454C152.404 62.729 156.939 58.0059 162.406 58.0059C166.419 58.0059 169.283 59.5225 171.561 62.794L161.147 73.1935C161.972 73.4969 162.861 73.6702 163.859 73.6702V73.6485ZM157.654 68.1454C157.654 68.9254 157.806 69.662 158.067 70.2687L164.423 63.6606C163.903 63.1406 162.818 62.989 162.124 62.989C159.217 62.989 157.654 65.4372 157.654 68.1454Z" fill="#C35686"/>
<path d="M200.111 72.5428V77.3309C198.853 78.2625 197.139 78.6308 195.577 78.6308C193.451 78.6308 191.412 77.3309 190.479 75.0993C188.96 77.4826 186.574 78.6308 183.753 78.6308C177.917 78.6308 174.164 73.9077 174.164 68.2746C174.164 62.6415 177.917 57.9834 183.753 57.9834C186.205 57.9834 188.331 58.8067 189.893 60.6916V58.395H195.837V71.5028C195.837 72.6944 196.77 73.3661 197.92 73.3661C198.701 73.3661 199.482 73.0627 200.111 72.5428ZM189.915 70.3112V66.2597C189.177 64.2881 187.311 62.8799 185.185 62.8799C182.278 62.8799 180.087 65.4364 180.087 68.2963C180.087 71.1562 182.278 73.7127 185.185 73.7127C187.268 73.7127 189.199 72.3044 189.915 70.3329V70.3112Z" fill="#C35686"/>
<path d="M228.119 72.5433V77.3314C226.861 78.2631 225.147 78.6314 223.585 78.6314C221.459 78.6314 219.419 77.3314 218.487 75.0999C216.968 77.4831 214.581 78.6314 211.761 78.6314C205.925 78.6314 202.172 73.9082 202.172 68.2752C202.172 62.6421 205.925 57.9839 211.761 57.9839C214.213 57.9839 216.339 58.8072 217.901 60.6922V41.2363H223.845V71.5034C223.845 72.695 224.778 73.3666 225.928 73.3666C226.709 73.3666 227.49 73.0633 228.119 72.5433ZM217.922 70.3117V66.2602C217.185 64.2887 215.319 62.8804 213.193 62.8804C210.286 62.8804 208.095 65.4369 208.095 68.2968C208.095 71.1567 210.286 73.7133 213.193 73.7133C215.276 73.7133 217.207 72.305 217.922 70.3334V70.3117Z" fill="#C35686"/>
<path d="M237.448 78.6314C234.02 78.6314 231.764 75.5115 231.764 72.2833V41.2363H237.708V71.5034C237.708 72.695 238.641 73.3666 239.791 73.3666C240.572 73.3666 241.353 73.0633 241.917 72.5433V77.3314C240.724 78.2631 239.01 78.6314 237.448 78.6314Z" fill="#C35686"/>
<path d="M244.412 50.2493C244.412 48.0177 246.234 46.1328 248.534 46.1328C250.834 46.1328 252.591 47.9961 252.591 50.2493C252.591 52.5025 250.769 54.3658 248.534 54.3658C246.3 54.3658 244.412 52.5025 244.412 50.2493ZM251.224 78.6314C247.797 78.6314 245.54 75.5115 245.54 72.2833V58.3956H251.42V71.5034C251.42 72.695 252.418 73.3666 253.502 73.3666C254.327 73.3666 255.108 73.0633 255.694 72.5433V77.3315C254.435 78.2631 252.721 78.6314 251.224 78.6314Z" fill="#C35686"/>
<path d="M281.597 72.5436V77.3317C280.338 78.2633 278.625 78.6316 277.128 78.6316C273.635 78.6316 271.4 75.5118 271.4 72.2836V65.7839C271.4 64.2239 270.576 62.8806 268.84 62.8806C266.866 62.8806 265.716 64.4839 265.304 66.5205V78.1767H259.359V58.4175H265.304V60.3458C266.497 58.7425 268.471 58.0059 270.402 58.0059C274.459 58.0059 277.323 61.2774 277.323 65.1772V71.5253C277.323 72.7169 278.321 73.3885 279.406 73.3885C280.187 73.3885 280.968 73.0852 281.597 72.5652V72.5436Z" fill="#C35686"/>
<path d="M295.135 73.6485C297.109 73.6485 299.148 73.1285 300.71 71.7853V77.505C299.105 78.285 296.914 78.6533 295.135 78.6533C288.886 78.6533 283.68 74.7101 283.68 68.1454C283.68 62.729 288.214 58.0059 293.681 58.0059C297.695 58.0059 300.558 59.5225 302.836 62.794L292.423 73.1935C293.247 73.4969 294.137 73.6702 295.135 73.6702V73.6485ZM288.93 68.1454C288.93 68.9254 289.082 69.662 289.342 70.2687L295.699 63.6606C295.178 63.1406 294.093 62.989 293.399 62.989C290.492 62.989 288.93 65.4372 288.93 68.1454Z" fill="#C35686"/>
<path d="M132.487 184.013V186.829C131.467 187.501 130.491 187.718 129.471 187.718C126.456 187.718 125.284 185.486 125.371 182.453V181.586H116.693V187.371H113.677V181.586H110.119V178.77H113.677V173.592C113.677 170.537 114.74 167.655 117.192 165.792L119.101 168.132C117.3 169.345 116.671 171.533 116.671 173.592V178.77H125.349V170.298C125.349 165.424 121.401 162.022 116.606 162.022C112.18 162.022 108.015 164.904 108.015 168.999C108.015 170.515 108.319 171.815 109.295 173.007L107.06 174.87C105.498 173.028 105.064 171.317 105.064 168.977C105.064 163.279 110.532 159.141 116.585 159.141C123.115 159.141 128.343 163.43 128.343 170.147V182.756C128.343 183.926 128.972 184.858 130.209 184.858C131.033 184.858 131.88 184.555 132.444 183.97L132.487 184.013Z" fill="#C35686"/>
<path d="M151.906 176.907C154.683 177.189 157.416 179.442 157.416 182.41C157.416 185.53 154.835 187.718 151.841 187.718C149.541 187.718 147.35 186.895 146.243 184.75C145.701 186.592 144.204 187.718 142.251 187.718C141.362 187.718 140.386 187.48 139.366 186.787V183.905C139.865 184.534 140.82 184.924 141.601 184.924C142.859 184.924 143.466 183.84 143.466 182.735V166.009H146.482V175.651C146.959 175.651 147.371 175.651 147.805 175.607C151.797 175.499 156.548 174.329 156.548 169.454C156.548 164.579 151.776 162.088 146.786 162.088C141.319 162.088 136.589 165.056 136.589 170.949C136.589 172.552 137.066 174.069 138.151 175.239L135.916 177.146C134.224 175.304 133.66 173.397 133.66 170.949C133.66 163.388 139.518 159.293 146.699 159.293C153.88 159.293 159.629 162.954 159.629 169.281C159.629 173.484 156.266 176.496 151.884 176.972L151.906 176.907ZM148.087 177.99C147.545 177.99 147.024 178.034 146.482 178.077V181.392C146.482 183.819 148.434 185.14 150.821 185.14C152.665 185.14 154.444 184.057 154.444 182.064C154.444 178.597 150.843 178.012 148.087 178.012V177.99Z" fill="#C35686"/>
<path d="M172.71 173.592L173.99 170.97C174.923 171.642 176.333 172.227 177.505 172.227C180.347 172.227 182.69 170.125 182.69 167.201C182.69 163.647 179.219 162.087 176.094 162.087C169.521 162.087 165.204 167.85 165.204 174.09C165.204 180.807 169.976 184.858 176.485 184.858C179.023 184.858 182.494 183.926 184.208 182.02V185.616C181.952 187.176 179.219 187.718 176.485 187.718C168.197 187.718 162.145 182.497 162.145 173.982C162.145 166.031 167.915 159.228 176.094 159.228C181.41 159.228 185.705 162.261 185.705 167.179C185.705 171.75 182.061 175.065 177.57 175.065C176.094 175.065 173.903 174.394 172.688 173.592H172.71Z" fill="#C35686"/>
<path d="M217.944 174.61C217.944 181.478 214.343 187.718 206.814 187.718C203.994 187.718 201.434 186.829 200.089 184.295C199.655 186.288 198.245 187.718 196.075 187.718C195.186 187.718 194.188 187.479 193.19 186.786V183.905C193.689 184.533 194.644 184.923 195.446 184.923C196.661 184.923 197.29 183.84 197.29 182.735V166.009H200.306V179.896C200.783 183.363 203.322 185.075 206.836 185.075C212.65 185.075 214.928 179.701 214.928 174.61C214.928 167.482 209.223 162.044 202.15 162.044C195.967 162.044 190.435 165.12 190.435 171.88C190.435 173.44 190.977 174.957 191.91 176.17L189.654 178.033C188.243 176.278 187.506 174.09 187.506 171.88C187.506 163.496 194.296 159.249 202.063 159.249C210.806 159.249 217.966 165.77 217.966 174.61H217.944Z" fill="#C35686"/>
<path d="M235.04 170.515C237.188 170.234 239.444 168.847 239.444 166.421C239.444 163.344 236.082 162.044 232.762 162.044C228.814 162.044 224.323 164.189 224.323 168.717C224.323 173.245 228.271 175.823 232.958 175.975C233.24 176.018 233.543 176.018 233.825 175.975V178.705C231.634 178.705 227.425 178.987 227.425 182.02C227.425 184.316 230.636 185.031 232.415 185.031C234.411 185.031 236.515 184.555 238.121 183.385V186.396C236.212 187.458 234.129 187.718 232.025 187.718C228.597 187.718 224.366 186.245 224.366 182.128C224.366 179.637 226.471 177.687 228.901 177.34C224.518 176.603 221.242 173.245 221.242 168.717C221.242 162.369 227.143 159.228 232.849 159.228C237.926 159.228 242.373 161.806 242.373 166.399C242.373 170.19 239.488 172.79 235.843 173.267L235.019 170.494L235.04 170.515Z" fill="#C35686"/>
<path d="M263.309 171.295V175.694H268.906V178.51H263.309V181.543C263.309 184.858 261.118 187.696 257.69 187.696C256.432 187.696 254.609 187.415 253.264 186.526V183.493C254.284 184.512 255.911 184.945 257.299 184.945C259.165 184.945 260.315 183.298 260.315 181.543V178.51H254.696V175.694H260.315V171.295C260.315 167.547 262.029 163.842 265.739 162.477H252.223C249.402 162.477 246.994 163.691 246.994 166.811C246.994 169.541 249.489 170.84 251.919 170.949L251.138 173.765C247.081 173.484 243.957 171.079 243.957 166.789C243.957 162.001 248.014 159.683 252.44 159.683H271.271V162.456C266.346 162.456 263.331 166.507 263.331 171.317L263.309 171.295Z" fill="#C35686"/>
<path d="M286.435 172.66L287.607 170.082C288.431 170.624 289.32 170.775 290.297 170.775C292.553 170.775 294.44 169.107 294.44 166.919C294.44 163.799 291.013 162.087 287.607 162.087C281.25 162.087 276.434 167.656 276.434 174.09C276.434 180.525 279.861 184.858 285.936 184.858C288.127 184.858 290.427 184.186 292.076 182.713V177.643H295.091V190.318C295.091 193.351 293.768 195.539 291.099 196.991L289.494 194.499C291.251 193.806 292.076 192.203 292.076 190.318V185.79C290.275 187.068 288.084 187.696 285.871 187.696C277.931 187.696 273.418 181.652 273.418 174.09C273.418 165.857 279.623 159.228 287.628 159.228C292.857 159.228 297.282 162.109 297.282 166.919C297.282 170.732 294.115 173.657 290.318 173.657C289.06 173.657 287.498 173.31 286.457 172.639L286.435 172.66Z" fill="#C35686"/>
<path d="M334.468 183.624V186.549C333.296 187.372 332.168 187.719 331.105 187.719C328.285 187.719 326.657 186.202 326.657 182.497V177.709H319.433C317.828 183.84 313.337 187.74 306.698 187.74V184.924C311.818 184.924 314.942 181.999 316.266 177.709H312.165V174.892H316.895C317.003 174.026 317.047 173.138 317.047 172.206C317.047 167.049 314.899 162.066 309.041 162.066C305.765 162.066 302.641 164.298 302.641 167.808C302.641 169.259 303.509 171.079 304.702 171.946L302.75 174.177C300.84 172.899 299.582 170.083 299.582 167.808C299.582 162.738 304.225 159.271 309.041 159.271C315.918 159.271 320.106 164.428 320.106 172.228C320.106 173.159 320.062 174.069 319.954 174.914H326.679V159.705H329.695V182.519C329.695 183.927 330.237 184.945 331.756 184.945C332.775 184.945 333.86 184.447 334.489 183.667L334.468 183.624Z" fill="#C35686"/>
<path d="M346.204 187.718C344.989 187.718 343.579 187.328 342.299 186.462V183.298C343.276 184.273 344.556 184.945 345.966 184.945C348.027 184.945 349.285 183.19 349.285 181.24V167.547C349.285 164.622 346.985 162.088 344.013 162.088C340.499 162.088 338.698 164.709 338.698 167.266C338.698 168.934 339.718 170.689 341.236 171.469L339.132 173.57C337.071 172.357 335.617 169.584 335.617 167.201C335.617 163.149 338.785 159.206 344.013 159.206C348.786 159.206 352.301 162.759 352.301 167.504V181.197C352.301 184.793 349.958 187.675 346.204 187.675V187.718Z" fill="#C35686"/>
<path d="M367.575 196.406C366.361 196.406 364.95 196.059 363.67 195.193V191.986C364.647 192.961 365.927 193.633 367.337 193.633C369.398 193.633 370.656 191.878 370.656 189.928V167.547C370.656 164.622 368.356 162.088 365.384 162.088C361.913 162.088 360.069 164.666 360.069 167.266C360.069 168.934 361.089 170.689 362.607 171.469L360.503 173.57C358.442 172.357 356.988 169.584 356.988 167.201C356.988 163.214 360.112 159.206 365.384 159.206C370.157 159.206 373.672 162.759 373.672 167.504V189.885C373.672 193.481 371.329 196.363 367.575 196.363V196.406Z" fill="#C35686"/>
<path d="M414.393 184.208V187.024C413.525 187.501 412.549 187.718 411.508 187.718C407.906 187.718 406.54 184.901 405.368 182.171C404.392 179.983 402.982 177.492 400.248 177.492H398.209C396.647 183.731 392.156 187.718 385.43 187.718V184.901C392.503 184.901 395.779 179.29 395.779 172.183C395.779 167.027 393.631 162.044 387.774 162.044C384.498 162.044 381.373 164.275 381.373 167.785C381.373 169.237 382.241 171.057 383.434 171.923L381.482 174.155C379.573 172.877 378.314 170.06 378.314 167.785C378.314 162.716 382.957 159.249 387.774 159.249C394.651 159.249 398.838 164.405 398.838 172.205C398.838 173.072 398.795 173.873 398.729 174.697H401.029C404.826 174.697 406.8 171.577 406.8 168.067V159.682H409.837V168.067C409.837 172.248 407.451 175.823 403.09 176.213C405.976 176.647 407.039 178.9 408.015 181.001C408.991 183.038 409.859 184.945 412.311 184.945C413.005 184.945 413.829 184.641 414.393 184.208Z" fill="#C35686"/>
<path d="M431.38 187.371H415.174V184.598C418.45 184.598 420.576 182.496 420.576 179.615V167.525C420.576 162.564 424.199 159.249 429.124 159.249C434.049 159.249 437.476 162.326 437.476 167.244C437.476 169.584 436.023 172.508 434.005 173.765L431.922 171.772C433.484 170.84 434.417 169.085 434.417 167.244C434.417 164.21 432.118 162.087 429.102 162.087C426.086 162.087 423.592 164.384 423.592 167.504V179.723C423.592 181.825 422.528 183.71 420.663 184.641H431.206C434.048 184.641 436.088 183.97 437.889 181.803L439.689 183.71C437.585 186.635 434.895 187.371 431.358 187.371H431.38Z" fill="#C35686"/>
<path d="M481.105 187.718C478.285 187.718 476.658 185.725 476.658 182.995V165.836C476.658 163.691 475.291 162.044 473.056 162.044C469.694 162.044 467.828 165.251 467.828 168.284V187.35H464.791V165.814C464.791 163.669 463.38 162.022 461.167 162.022C457.848 162.022 455.852 165.229 455.852 168.262V187.328H452.815V167.287C452.815 164.471 451.209 162.109 448.216 162.109C445.764 162.109 443.877 163.972 443.877 166.486C443.877 168.002 444.896 169.649 446.22 170.385L444.18 172.292C442.228 171.122 440.904 168.739 440.904 166.486C440.904 162.152 443.92 159.228 448.216 159.228C451.426 159.228 454.073 160.874 455.18 163.864C456.308 160.852 458.586 159.228 461.775 159.228C464.465 159.228 466.656 160.831 467.372 163.366C468.544 160.722 470.735 159.228 473.707 159.228C477.46 159.228 479.76 162.152 479.76 165.749V182.8C479.76 183.926 480.541 184.901 481.713 184.901C482.776 184.901 483.622 184.555 484.338 183.731V186.656C483.21 187.48 482.19 187.718 481.17 187.718H481.105Z" fill="#C35686"/>
<path d="M516.359 187.718C513.538 187.718 511.911 185.725 511.911 182.995V167.157C511.911 164.189 509.959 162.044 506.943 162.044C503.429 162.044 500.391 164.882 500.391 168.435V187.349H497.354V167.309C497.354 164.492 495.749 162.131 492.755 162.131C490.303 162.131 488.416 163.994 488.416 166.507C488.416 168.024 489.435 169.67 490.759 170.407L488.719 172.313C486.767 171.144 485.443 168.76 485.443 166.507C485.443 162.174 488.459 159.249 492.755 159.249C495.965 159.249 498.656 160.961 499.675 163.929C501.151 160.896 504.166 159.249 507.529 159.249C512.063 159.249 514.992 162.802 514.992 167.157V182.8C514.992 183.926 515.773 184.901 516.945 184.901C518.008 184.901 518.854 184.555 519.526 183.731V186.656C518.442 187.479 517.422 187.718 516.402 187.718H516.359Z" fill="#C35686"/>
<path d="M106.084 219.371C106.084 213.522 109.881 207.434 115.001 205.917V208.994C111.247 210.943 109.143 215.233 109.143 219.328C109.143 226.066 114.024 231.613 121.249 231.613C128.473 231.613 133.008 225.654 133.008 219.371C133.008 213.803 129.753 208.69 124.85 208.69C122.312 208.69 120.121 210.293 120.121 213.132C120.121 215.125 121.531 216.945 123.961 216.945C125.024 216.945 126.26 216.663 127.128 216.078L128.256 218.461C126.89 219.393 125.327 219.74 123.722 219.74C119.774 219.74 117.279 216.772 117.279 213.11C117.279 208.669 120.923 205.939 124.85 205.939C131.576 205.939 136.067 212.265 136.067 219.35C136.067 227.193 130.057 234.494 121.227 234.494C112.397 234.494 106.106 227.583 106.106 219.35L106.084 219.371Z" fill="#C35686"/>
<path d="M145.071 233.585V230.703C145.57 231.332 146.524 231.722 147.327 231.722C148.542 231.722 149.171 230.638 149.171 229.533V212.807H152.187V223.185C153.51 223.727 154.964 223.965 156.374 223.965C160.171 223.965 163.143 220.997 163.143 217.227C163.143 211.269 157.979 208.886 152.707 208.886C147.436 208.886 142.316 212.006 142.316 217.704C142.316 219.177 142.815 220.824 143.878 221.885L141.686 223.835C140.038 222.124 139.387 220.044 139.387 217.704C139.387 210.294 145.722 206.069 152.621 206.069C159.52 206.069 166.18 209.471 166.18 217.097C166.18 222.21 161.841 226.543 157.068 226.543C155.419 226.543 153.749 226.348 152.187 225.72V229.728C152.187 232.415 150.863 234.516 147.978 234.516C147.088 234.516 146.112 234.278 145.093 233.585H145.071Z" fill="#C35686"/>
<path d="M186.724 234.082C188.135 234.082 190.521 233.692 191.758 233.064V236.141C190.109 236.726 188.395 236.964 186.638 236.964C180.845 236.964 178.936 234.147 173.404 234.147V231.266C181.952 230.789 190.391 225.459 190.391 217.486C190.391 212.655 187.072 208.907 182.147 208.907C177.569 208.907 173.078 211.593 173.078 216.598C173.078 220.411 175.53 223.163 179.413 223.358L178.437 226.131C173.447 225.784 170.041 221.451 170.041 216.62C170.041 209.903 175.899 206.047 182.147 206.047C188.786 206.047 193.472 210.922 193.472 217.508C193.472 225.589 185.965 231.396 178.437 232.414C181.561 232.999 183.861 234.082 186.724 234.082Z" fill="#C35686"/>
<path d="M225.233 231.114V233.887C224.3 234.429 223.281 234.516 222.196 234.516C218.833 234.516 217.51 231.829 216.533 229.533C215.47 227.106 214.342 225.481 211.652 225.481H209.7V229.728C209.7 232.414 208.376 234.516 205.469 234.516C204.58 234.516 203.56 234.277 202.54 233.584V230.897C203.039 231.526 204.015 231.916 204.796 231.916C206.055 231.916 206.641 230.832 206.641 229.728V212.807H209.678V222.881H211.435C215.384 222.881 219.918 220.931 219.918 216.36C219.918 211.008 214.754 208.863 210.112 208.863C204.883 208.863 199.72 212.092 199.72 217.79C199.72 219.263 200.219 220.866 201.282 221.971L199.091 223.921C197.442 222.21 196.791 220.13 196.791 217.79C196.791 210.38 203.083 206.047 210.025 206.047C216.967 206.047 222.847 209.665 222.847 216.186C222.847 220.606 218.898 223.878 214.689 224.181C217.076 224.658 218.443 226.673 219.419 228.709C220.091 230.117 221.111 231.786 222.89 231.786C223.671 231.786 224.604 231.591 225.233 231.114Z" fill="#C35686"/>
<path d="M230.179 233.584V230.182C231.243 231.071 232.327 231.656 233.737 231.656C235.777 231.656 237.404 230.291 237.404 228.189C237.404 221.993 226.578 221.365 226.578 213.608C226.578 208.69 230.635 206.047 235.213 206.047C239.226 206.047 243.262 208.625 243.262 212.958C243.262 215.298 241.938 217.14 239.855 218.18L237.968 216.186C239.226 215.515 240.159 214.583 240.159 213.023C240.159 210.25 237.773 208.777 235.191 208.777C232.349 208.777 229.594 210.445 229.594 213.608C229.594 219.458 240.333 220.52 240.333 228.189C240.333 232.089 237.447 234.516 233.694 234.516C232.414 234.516 231.264 234.277 230.136 233.584H230.179Z" fill="#C35686"/>
<path d="M264.61 218.093V228.038C264.61 231.439 262.354 234.516 258.709 234.516C257.494 234.516 255.628 234.213 254.283 233.346V230.269C255.216 231.244 256.735 231.591 258.036 231.591C260.119 231.591 261.594 230.118 261.594 228.038V218.093C261.594 214.302 263.243 210.554 267.062 209.275H253.502C250.682 209.275 248.274 210.489 248.274 213.608C248.274 216.338 250.769 217.617 253.198 217.747L252.417 220.563C248.36 220.282 245.236 217.877 245.236 213.587C245.236 208.799 249.293 206.48 253.719 206.48H272.55V209.254C267.561 209.254 264.632 213.392 264.632 218.115L264.61 218.093Z" fill="#C35686"/>
<path d="M307.958 230.529V233.454C306.895 234.234 305.767 234.516 304.747 234.516C302.556 234.516 300.733 233.064 300.256 230.898C298.737 233.519 296.264 234.516 293.227 234.516C288.454 234.516 285.612 230.768 285.612 226.24V214.15C285.612 211.377 283.898 208.885 280.969 208.885C278.626 208.885 276.782 210.554 276.782 212.937C276.782 214.54 277.65 215.97 278.886 216.923L276.739 218.873C274.851 217.465 273.68 215.32 273.68 212.937C273.68 208.69 276.739 206.025 280.948 206.025C285.72 206.025 288.649 209.492 288.649 214.15V226.24C288.649 229.359 290.45 231.786 293.726 231.786C297.523 231.786 300.169 228.471 300.169 224.723V206.459H303.185V229.251C303.185 230.529 304.009 231.699 305.376 231.699C306.352 231.699 307.372 231.309 307.958 230.529Z" fill="#C35686"/>
<path d="M340.826 208.798C339.502 208.798 338.765 209.622 338.765 210.943V225.568C338.765 230.789 334.946 234.537 329.74 234.537C324.533 234.537 321.062 230.551 321.062 225.481V214.41C321.062 211.637 319.413 208.863 316.375 208.863C313.946 208.863 312.188 210.77 312.188 213.153C312.188 214.627 313.121 216.165 314.336 216.945L312.253 218.981C310.344 217.725 309.086 215.471 309.086 213.175C309.086 208.885 312.058 206.047 316.354 206.047C321.235 206.047 324.099 209.795 324.099 214.432V225.503C324.099 228.969 326.095 231.786 329.805 231.786C333.515 231.786 335.706 229.164 335.706 225.589V210.77C335.706 207.888 337.181 206.047 340.197 206.047C341.216 206.047 342.236 206.285 343.364 207.065V209.947C342.67 209.167 341.889 208.82 340.826 208.82V208.798Z" fill="#C35686"/>
<path d="M385.539 208.799C384.215 208.799 383.478 209.687 383.478 211.03V227.019C383.478 231.461 380.506 234.516 376.058 234.516C373.173 234.516 370.938 233.108 370.049 230.378C368.985 233.021 366.642 234.516 363.8 234.516C359.461 234.516 356.576 231.244 356.576 226.998V214.432C356.576 211.507 355.057 208.885 351.846 208.885C349.417 208.885 347.594 210.532 347.594 212.98C347.594 214.497 348.484 216.187 349.85 216.88L347.854 218.938C345.75 217.768 344.535 215.342 344.535 213.002C344.535 208.755 347.616 206.025 351.846 206.025C356.836 206.025 359.613 209.622 359.613 214.41V226.976C359.613 229.424 361.219 231.613 363.8 231.613C366.621 231.613 368.486 229.663 368.486 226.889V206.437H371.524V226.846C371.524 229.576 373.238 231.613 376.058 231.613C378.705 231.613 380.44 229.576 380.44 227.019V210.835C380.44 207.954 381.916 206.047 384.931 206.047C385.951 206.047 386.992 206.285 388.099 207.065V209.99C387.405 209.21 386.624 208.82 385.56 208.82L385.539 208.799Z" fill="#C35686"/>
<path d="M423.114 231.656V234.495C415.977 234.495 412.419 229.923 409.707 223.965C407.212 229.901 403.957 234.538 396.863 234.495V231.678C403.741 231.678 406.084 225.633 408.188 220.238C406.474 215.797 404.131 208.799 398.425 208.799C395.106 208.799 392.286 210.706 392.286 214.259C392.286 215.905 393.153 217.617 394.347 218.7L392.307 220.888C390.355 219.285 389.227 216.837 389.227 214.324C389.227 209.102 393.609 205.982 398.555 205.982C404.89 205.982 407.581 211.204 409.728 216.404C412.223 210.554 415.478 205.982 422.507 205.982V208.756C415.716 208.756 413.373 214.8 411.29 220.152C413.438 225.698 416.085 231.613 423.092 231.613L423.114 231.656Z" fill="#C35686"/>
<path d="M453.639 206.459V237.701C453.639 240.712 452.185 242.467 449.69 243.789L448.042 241.254C449.712 240.669 450.58 239.499 450.58 237.701V230.529C449.3 233.064 446.979 234.516 444.202 234.516C439.125 234.516 436.044 230.659 436.044 225.806V214.172C436.044 211.55 434.526 208.864 431.618 208.864C429.189 208.864 427.323 210.532 427.323 213.045C427.323 214.562 428.299 216.295 429.557 217.097L427.453 219.133C425.544 217.812 424.242 215.342 424.242 213.045C424.242 208.647 427.323 206.025 431.618 206.025C436.348 206.025 439.082 209.687 439.082 214.172V225.806C439.082 229.316 440.926 231.656 444.592 231.656C448.259 231.656 450.558 228.579 450.558 225.178V206.459H453.596H453.639Z" fill="#C35686"/>
<path d="M486.875 231.699C484.727 233.736 482.102 234.538 479.173 234.538C475.572 234.538 472.296 232.631 468.977 232.631C467.111 232.631 465.571 233.303 464.247 234.581L462.208 232.674L481.885 209.275H466.764C464.03 209.275 461.34 210.597 461.34 213.652C461.34 216.707 463.922 217.747 466.612 217.747L465.874 220.585C461.535 220.433 458.303 218.245 458.303 213.608C458.303 208.972 462.598 206.48 466.937 206.48H484.988L485.92 208.864L468.022 230.399C468.695 230.248 469.345 230.204 470.018 230.204C473.533 230.204 475.572 231.764 479.152 231.764C481.408 231.764 483.447 231.223 485.161 229.663L486.853 231.721L486.875 231.699Z" fill="#C35686"/>
<path d="M124.591 283.156V285.734C123.767 286.319 122.726 286.557 121.706 286.557C119.949 286.557 118.538 285.387 118.083 283.546C116.955 285.452 115.067 286.514 112.854 286.514C108.819 286.514 105.934 283.199 105.934 279.256C105.934 275.313 108.819 272.041 112.854 272.041C114.915 272.041 116.716 272.929 117.888 274.619V272.388H120.73V281.986C120.73 283.112 121.402 283.935 122.574 283.935C123.355 283.935 124.027 283.741 124.613 283.156H124.591ZM117.866 278.172C117.584 276.223 115.675 274.468 113.375 274.468C110.75 274.468 108.732 276.699 108.732 279.256C108.732 281.812 110.772 284.044 113.375 284.044C115.718 284.044 117.584 282.289 117.866 280.339V278.151V278.172Z" fill="#C35686"/>
<path d="M142.337 278.975C142.337 283.156 139.017 286.536 135.004 286.536C130.99 286.536 127.779 283.264 127.779 279.278V258.436H130.621V279.278C130.621 281.726 132.682 283.806 135.156 283.806C137.781 283.806 139.733 281.705 139.733 278.931C139.733 277.805 139.256 276.158 138.128 275.53C137.976 276.31 137.065 276.981 136.088 276.981C134.83 276.981 133.659 275.855 133.659 274.555C133.659 273.082 135.025 271.977 136.436 271.977C140.341 271.977 142.337 275.595 142.337 278.953V278.975Z" fill="#C35686"/>
<path d="M154.008 283.892C155.462 283.892 157.089 283.589 158.261 282.679V285.604C157.002 286.276 155.419 286.492 154.008 286.492C149.8 286.492 146.307 283.481 146.307 279.191C146.307 275.334 149.344 272.02 153.292 272.02C155.484 272.02 158.499 272.886 158.499 275.529C158.499 276.808 157.566 277.826 156.265 277.826C155.18 277.826 154.073 276.851 154.073 275.768C154.073 275.378 154.16 275.031 154.312 274.749C153.965 274.663 153.574 274.641 153.227 274.641C150.646 274.641 148.975 276.699 148.975 279.213C148.975 281.942 151.362 283.892 154.008 283.892Z" fill="#C35686"/>
<path d="M181.257 283.156V285.734C180.433 286.319 179.37 286.557 178.372 286.557C176.615 286.557 175.204 285.387 174.749 283.546C173.621 285.452 171.733 286.514 169.52 286.514C165.485 286.514 162.6 283.199 162.6 279.256C162.6 275.313 165.485 272.041 169.52 272.041C171.581 272.041 173.382 272.93 174.554 274.619V258.479H177.396V282.007C177.396 283.134 178.068 283.957 179.24 283.957C180.021 283.957 180.693 283.762 181.279 283.177L181.257 283.156ZM174.532 278.173C174.25 276.223 172.341 274.468 170.041 274.468C167.416 274.468 165.398 276.699 165.398 279.256C165.398 281.813 167.438 284.044 170.041 284.044C172.384 284.044 174.25 282.289 174.532 280.339V278.151V278.173Z" fill="#C35686"/>
<path d="M191.064 284.044C192.344 284.044 193.906 283.741 195.121 282.787V285.604C193.863 286.276 192.279 286.492 191.086 286.492C186.682 286.492 183.232 283.459 183.232 279.191C183.232 275.334 186.443 272.02 190.305 272.02C192.887 272.02 194.752 273.103 196.315 275.053L188.07 283.242C188.895 283.741 189.914 284.022 191.043 284.022L191.064 284.044ZM185.836 279.213C185.836 280.144 186.074 281.011 186.53 281.704L192.778 275.421C192.106 274.879 191.086 274.489 190.24 274.489C187.615 274.489 185.836 276.678 185.836 279.213Z" fill="#C35686"/>
<path d="M208.485 260.753C206.489 260.753 205.165 262.313 205.165 264.22V272.366H209.461V275.009H205.165V288.94C205.165 291.757 203.169 294.877 200.197 295.18L199.221 292.754C200.978 292.515 202.345 290.695 202.345 288.94V275.009H198.201V272.366H202.345V264.22C202.345 260.623 204.84 258.023 208.485 258.023C209.7 258.023 210.784 258.327 211.761 258.955V261.837C210.784 261.057 209.721 260.753 208.485 260.753Z" fill="#C35686"/>
<path d="M226.644 272.388V288.962C226.644 291.779 224.605 294.899 221.654 295.202L220.678 292.775C222.435 292.494 223.802 290.717 223.802 288.962V283.849C222.631 285.561 220.786 286.492 218.725 286.492C214.69 286.492 211.805 283.177 211.805 279.234C211.805 275.291 214.69 272.02 218.725 272.02C220.786 272.02 222.631 272.908 223.802 274.663V272.366H226.644V272.388ZM223.759 278.151C223.477 276.201 221.567 274.446 219.268 274.446C216.643 274.446 214.625 276.678 214.625 279.234C214.625 281.791 216.664 284.022 219.268 284.022C221.611 284.022 223.477 282.267 223.759 280.318V278.129V278.151Z" fill="#C35686"/>
<path d="M249.337 283.156V285.691C248.512 286.319 247.428 286.514 246.517 286.514C244.065 286.514 242.611 284.477 242.611 282.267V277.739C242.611 275.833 241.592 274.468 239.791 274.468C237.708 274.468 236.363 276.223 236.19 278.216V286.167H233.348V258.479H236.19V274.316C237.014 272.865 238.533 272.063 240.333 272.063C243.371 272.063 245.41 274.403 245.41 277.523V282.008C245.41 283.091 246.148 283.957 247.406 283.957C248.079 283.957 248.729 283.719 249.315 283.177L249.337 283.156Z" fill="#C35686"/>
<path d="M251.941 264.783C251.941 263.613 252.874 262.595 254.089 262.595C255.304 262.595 256.237 263.613 256.237 264.783C256.237 265.953 255.304 266.928 254.089 266.928C252.874 266.928 251.941 265.953 251.941 264.783ZM256.519 286.514C254.133 286.514 252.701 284.477 252.701 282.267V272.409H255.521V282.007C255.521 283.091 256.215 283.957 257.409 283.957C258.19 283.957 258.862 283.719 259.448 283.177V285.712C258.58 286.34 257.539 286.535 256.562 286.535L256.519 286.514Z" fill="#C35686"/>
<path d="M260.641 295.202L259.621 292.775C261.422 292.493 262.789 290.717 262.789 288.962V272.388H265.609V288.962C265.609 291.778 263.613 294.898 260.641 295.202ZM262.008 264.783C262.008 263.613 262.984 262.595 264.199 262.595C265.414 262.595 266.347 263.613 266.347 264.783C266.347 265.953 265.37 266.928 264.199 266.928C263.027 266.928 262.008 265.953 262.008 264.783Z" fill="#C35686"/>
<path d="M287.759 283.308V285.756C286.978 286.254 285.915 286.492 284.917 286.492C282.856 286.492 281.641 285.019 280.578 283.373C279.407 281.509 278.344 280.361 276 280.296H275.176V286.146H272.334V258.457H275.176V277.848H275.957C279.233 277.761 281.142 275.66 281.142 272.388H283.963C283.963 275.508 282.249 278.39 279.038 279.061C280.795 279.451 281.728 280.664 282.552 281.834C283.377 282.961 284.158 283.979 285.611 283.979C286.392 283.979 287.173 283.676 287.759 283.308Z" fill="#C35686"/>
<path d="M294.939 286.514C292.553 286.514 291.121 284.477 291.121 282.267V258.479H293.963V282.007C293.963 283.091 294.657 283.957 295.807 283.957C296.588 283.957 297.261 283.719 297.847 283.177V285.712C297.022 286.341 295.981 286.536 294.961 286.536L294.939 286.514Z" fill="#C35686"/>
<path d="M323.599 286.514C321.147 286.514 319.694 284.477 319.694 282.267V277.739C319.694 275.833 318.674 274.468 316.873 274.468C314.812 274.468 313.402 276.309 313.25 278.216V286.167H310.43V277.739C310.43 275.833 309.41 274.468 307.609 274.468C305.527 274.468 304.138 276.266 304.008 278.216V286.167H301.166V272.388H304.008V274.424C304.832 272.951 306.308 272.041 308.108 272.041C310.104 272.041 311.818 273.059 312.643 274.966C313.38 273.168 315.094 272.041 317.242 272.041C320.323 272.041 322.471 274.273 322.471 277.501V281.986C322.471 283.069 323.165 283.935 324.51 283.935C325.139 283.935 325.79 283.697 326.397 283.156V285.69C325.573 286.319 324.51 286.514 323.577 286.514H323.599Z" fill="#C35686"/>
<path d="M345.749 283.156V285.69C344.925 286.319 343.84 286.514 342.929 286.514C340.477 286.514 339.024 284.477 339.024 282.267V277.739C339.024 275.833 338.004 274.468 336.203 274.468C334.12 274.468 332.775 276.222 332.602 278.216V286.167H329.76V272.388H332.602V274.294C333.426 272.843 334.945 272.041 336.746 272.041C339.783 272.041 341.822 274.381 341.822 277.501V281.986C341.822 283.069 342.56 283.935 343.818 283.935C344.491 283.935 345.142 283.697 345.727 283.156H345.749Z" fill="#C35686"/>
<path d="M120.382 316.131C120.382 320.074 117.15 323.389 113.158 323.389C109.166 323.389 105.934 320.074 105.934 316.131C105.934 312.188 109.166 308.873 113.158 308.873C117.15 308.873 120.382 312.145 120.382 316.131ZM117.888 316.131C117.888 315.654 117.844 315.199 117.736 314.723C117.345 315.069 116.803 315.264 116.26 315.264C115.002 315.264 113.961 314.246 113.961 313.011C113.961 312.47 114.156 311.95 114.547 311.56C114.069 311.451 113.614 311.365 113.136 311.365C110.511 311.365 108.537 313.553 108.537 316.131C108.537 318.709 110.576 320.898 113.18 320.898C115.783 320.898 117.909 318.709 117.909 316.131H117.888Z" fill="#C35686"/>
<path d="M140.536 316.088C140.536 320.031 137.607 323.346 133.572 323.346C131.533 323.346 129.71 322.414 128.582 320.724V331.73H125.74V309.22H128.582V311.451C129.71 309.74 131.555 308.873 133.572 308.873C137.607 308.873 140.536 312.188 140.536 316.088ZM137.716 316.088C137.716 313.51 135.677 311.3 133.073 311.3C130.773 311.3 128.864 313.055 128.582 315.004V317.193C128.864 319.143 130.73 320.898 133.073 320.898C135.698 320.898 137.716 318.666 137.716 316.109V316.088Z" fill="#C35686"/>
<path d="M163.187 328.719V331.297C162.363 331.882 161.321 332.077 160.302 332.077C157.915 332.077 156.483 330.084 156.483 327.874V320.746C155.312 322.457 153.511 323.367 151.45 323.367C147.415 323.367 144.529 320.052 144.529 316.109C144.529 312.166 147.415 308.895 151.45 308.895C153.554 308.895 155.312 309.783 156.483 311.473V309.241H159.325V327.57C159.325 328.654 159.998 329.52 161.169 329.52C161.95 329.52 162.623 329.282 163.209 328.74L163.187 328.719ZM156.462 317.171V314.983C156.18 313.033 154.27 311.278 151.971 311.278C149.346 311.278 147.328 313.509 147.328 316.066C147.328 318.622 149.367 320.854 151.971 320.854C154.314 320.854 156.18 319.099 156.462 317.149V317.171Z" fill="#C35686"/>
<path d="M175.293 311.17C175.293 312.426 174.273 313.466 172.993 313.466C172.125 313.466 171.344 312.925 170.997 312.101C169.739 312.73 169.001 314.008 168.893 315.568V322.978H166.051V309.198H168.893V311.495C169.674 310.022 171.149 308.852 172.885 308.852C174.208 308.852 175.315 309.87 175.315 311.148L175.293 311.17Z" fill="#C35686"/>
<path d="M177.83 322.609V319.792C178.503 320.421 179.349 320.811 180.217 320.811C181.28 320.811 182.126 319.987 182.126 318.926C182.126 316.694 179.088 315.416 179.088 312.686C179.088 310.844 180.021 309.458 181.67 308.678L183.189 310.758C182.408 311.148 181.909 311.819 181.909 312.708C181.909 314.701 184.946 316.066 184.946 319.186C184.946 321.482 183.276 323.367 180.932 323.367C179.869 323.367 178.741 323.215 177.852 322.63L177.83 322.609Z" fill="#C35686"/>
<path d="M190.935 318.71V311.885H186.791V309.242H190.935V301.485H193.755V309.242H198.051V311.885H193.755V318.406C193.755 319.663 194.384 320.833 195.751 320.833C196.619 320.833 197.313 320.551 197.942 320.01V322.544C197.161 323.173 196.228 323.368 195.252 323.368C192.432 323.368 190.956 321.418 190.956 318.731L190.935 318.71Z" fill="#C35686"/>
<path d="M218.356 319.988V322.523C217.532 323.151 216.447 323.346 215.471 323.346C213.822 323.346 212.433 322.284 211.869 320.529C211.132 322.284 209.526 323.368 207.617 323.368C204.406 323.368 202.389 320.941 202.389 317.865V309.198H205.231V317.626C205.231 319.489 206.207 320.854 208.203 320.854C210.199 320.854 211.479 319.013 211.631 317.15V309.198H214.451V318.796C214.451 319.879 215.189 320.746 216.317 320.746C217.098 320.746 217.77 320.508 218.356 319.966V319.988Z" fill="#C35686"/>
<path d="M233.825 311.451V317.539C233.825 321.157 231.373 323.389 227.772 323.389C224.17 323.389 221.719 321.157 221.719 317.539V309.241H224.561V317.279C224.561 319.381 225.732 320.897 227.924 320.897C230.115 320.897 231.33 319.381 231.33 317.279V313.856C229.963 313.942 228.791 312.881 228.791 311.408C228.791 310.043 229.876 308.916 231.286 308.916C232.696 308.916 233.825 310.086 233.825 311.494V311.451Z" fill="#C35686"/>
<path d="M261.747 311.451V317.539C261.747 321.157 259.295 323.389 255.694 323.389C253.655 323.389 251.745 322.327 251.051 320.377C250.313 322.37 248.469 323.389 246.408 323.389C242.807 323.389 240.355 321.157 240.355 317.539V309.241H243.198V317.366C243.198 319.424 244.261 320.919 246.408 320.919C248.556 320.919 249.641 319.446 249.641 317.366V309.241H252.461V317.322C252.461 319.424 253.676 320.919 255.867 320.919C258.059 320.919 259.274 319.446 259.274 317.322V313.856C257.907 313.942 256.735 312.881 256.735 311.408C256.735 310.043 257.82 308.916 259.187 308.916C260.662 308.916 261.768 310.086 261.768 311.494L261.747 311.451Z" fill="#C35686"/>
<path d="M282.096 320.615V323.345C281.814 323.389 281.597 323.389 281.358 323.345C278.429 323.194 276.282 321.005 274.09 318.189L268.862 323.454L266.974 321.504L272.485 316.001C269.838 312.534 268.428 311.559 266.389 311.667V308.938C266.692 308.894 267.061 308.894 267.322 308.894C270.012 309.046 271.964 310.931 274.351 314.116L279.666 308.808L281.532 310.714L275.956 316.326C277.909 318.947 279.623 320.659 282.096 320.572V320.615Z" fill="#C35686"/>
<path d="M298.996 309.22V325.794C298.996 328.611 297 331.731 294.028 332.034L293.052 329.607C294.809 329.369 296.176 327.549 296.176 325.794V321.028C295.308 322.501 293.833 323.368 292.141 323.368C288.93 323.368 286.912 320.941 286.912 317.865V309.198H289.754V317.626C289.754 319.489 290.73 320.854 292.726 320.854C294.722 320.854 295.959 319.056 296.154 317.15V309.198H298.975L298.996 309.22Z" fill="#C35686"/>
<path d="M317.589 324.862C317.589 328.329 314.964 331.73 311.449 332.077L310.516 329.586C312.968 329.347 314.855 327.397 314.855 324.862C314.855 322.327 312.968 320.378 310.408 320.378C308.889 320.378 307.566 320.919 306.503 322.046L304.594 320.161L313.076 311.863H304.594V309.22H316.309L317.177 311.408L310.213 318.363C310.516 318.276 310.842 318.254 311.146 318.254C314.964 318.254 317.589 321.223 317.589 324.884V324.862Z" fill="#C35686"/>
<path d="M116.628 402.816L117.908 400.194C118.841 400.866 120.251 401.451 121.423 401.451C124.265 401.451 126.608 399.349 126.608 396.424C126.608 392.871 123.136 391.311 120.012 391.311C113.439 391.311 109.121 397.074 109.121 403.314C109.121 410.03 113.894 414.082 120.403 414.082C122.941 414.082 126.412 413.15 128.126 411.243V414.84C125.87 416.4 123.136 416.942 120.403 416.942C112.115 416.942 106.062 411.72 106.062 403.206C106.062 395.254 111.833 388.451 120.012 388.451C125.328 388.451 129.623 391.484 129.623 396.402C129.623 400.974 125.979 404.289 121.488 404.289C120.012 404.289 117.821 403.617 116.606 402.816H116.628Z" fill="#C35686"/>
<path d="M147.045 409.727C147.045 413.67 143.812 416.985 139.82 416.985C135.828 416.985 132.596 413.67 132.596 409.727C132.596 405.784 135.828 402.469 139.82 402.469C143.812 402.469 147.045 405.74 147.045 409.727ZM144.55 409.727C144.55 409.25 144.506 408.795 144.398 408.318C144.007 408.665 143.465 408.86 142.923 408.86C141.664 408.86 140.623 407.842 140.623 406.607C140.623 406.065 140.818 405.545 141.209 405.155C140.731 405.047 140.276 404.96 139.798 404.96C137.173 404.96 135.199 407.149 135.199 409.727C135.199 412.305 137.238 414.493 139.842 414.493C142.445 414.493 144.571 412.305 144.571 409.727H144.55Z" fill="#C35686"/>
<path d="M169.695 422.314V424.893C168.87 425.478 167.807 425.673 166.809 425.673C164.423 425.673 162.991 423.679 162.991 421.469V414.341C161.82 416.053 160.019 416.963 157.958 416.963C153.923 416.963 151.037 413.648 151.037 409.705C151.037 405.762 153.923 402.49 157.958 402.49C160.062 402.49 161.82 403.379 162.991 405.068V402.837H165.833V421.166C165.833 422.249 166.506 423.116 167.677 423.116C168.458 423.116 169.131 422.878 169.717 422.336L169.695 422.314ZM162.969 410.767V408.578C162.687 406.628 160.778 404.873 158.479 404.873C155.853 404.873 153.836 407.105 153.836 409.662C153.836 412.218 155.875 414.45 158.479 414.45C160.822 414.45 162.687 412.695 162.969 410.745V410.767Z" fill="#C35686"/>
<path d="M188.526 413.583V416.118C187.702 416.747 186.617 416.942 185.641 416.942C183.992 416.942 182.603 415.88 182.039 414.125C181.302 415.88 179.696 416.963 177.787 416.963C174.576 416.963 172.559 414.537 172.559 411.46V402.794H175.401V411.222C175.401 413.085 176.377 414.45 178.373 414.45C180.369 414.45 181.649 412.609 181.801 410.745V402.794H184.621V412.392C184.621 413.475 185.359 414.342 186.487 414.342C187.268 414.342 187.94 414.103 188.526 413.562V413.583Z" fill="#C35686"/>
<path d="M198.332 414.472C199.612 414.472 201.174 414.168 202.389 413.215V416.032C201.131 416.703 199.547 416.92 198.354 416.92C193.95 416.92 190.5 413.887 190.5 409.619C190.5 405.762 193.711 402.447 197.573 402.447C200.154 402.447 202.02 403.531 203.582 405.48L195.338 413.67C196.162 414.168 197.182 414.45 198.31 414.45L198.332 414.472ZM193.103 409.64C193.103 410.572 193.342 411.439 193.798 412.132L200.046 405.849C199.373 405.307 198.354 404.917 197.508 404.917C194.882 404.917 193.103 407.105 193.103 409.64Z" fill="#C35686"/>
<path d="M209.419 412.305V405.481H205.275V402.837H209.419V395.081H212.239V402.837H216.535V405.481H212.239V412.002C212.239 413.259 212.869 414.429 214.235 414.429C215.103 414.429 215.797 414.147 216.427 413.605V416.14C215.646 416.768 214.713 416.963 213.736 416.963C210.916 416.963 209.441 415.014 209.441 412.327L209.419 412.305Z" fill="#C35686"/>
<path d="M220.2 412.305V405.481H216.057V402.837H220.2V395.081H223.021V402.837H227.316V405.481H223.021V412.002C223.021 413.259 223.65 414.429 225.017 414.429C225.884 414.429 226.579 414.147 227.208 413.605V416.14C226.427 416.768 225.494 416.963 224.518 416.963C221.697 416.963 220.222 415.014 220.222 412.327L220.2 412.305Z" fill="#C35686"/>
<path d="M238.078 414.472C239.358 414.472 240.92 414.168 242.135 413.215V416.032C240.876 416.703 239.293 416.92 238.121 416.92C233.695 416.92 230.268 413.887 230.268 409.619C230.268 405.762 233.478 402.447 237.34 402.447C239.922 402.447 241.788 403.531 243.35 405.48L235.106 413.67C235.93 414.168 236.95 414.45 238.078 414.45V414.472ZM232.849 409.64C232.849 410.572 233.088 411.439 233.544 412.132L239.792 405.849C239.119 405.307 238.121 404.917 237.253 404.917C234.628 404.917 232.828 407.105 232.828 409.64H232.849Z" fill="#C35686"/>
<path d="M661.895 57.7239C665.67 58.7638 668.1 60.9087 668.1 65.3719C668.1 72.4782 661.895 75.0131 654.02 75.0131C650.05 75.0131 645.689 74.8398 642.717 74.4715V42.6662C645.537 42.1245 649.139 41.7129 652.913 41.7129C660.745 41.7129 666.386 44.1178 666.386 50.5308C666.386 54.084 664.607 56.5756 661.874 57.3555V57.7239H661.895ZM649.507 55.1673H654.063C657.426 55.1673 659.444 53.9324 659.444 51.3975C659.444 48.6243 657.079 47.4326 653.109 47.4326C651.655 47.4326 650.462 47.5193 649.507 47.6926V55.1456V55.1673ZM649.507 68.99C650.744 69.12 652.284 69.2284 654.02 69.2284C658.446 69.2284 661.027 67.9501 661.027 65.0469C661.027 62.1437 658.381 60.8654 654.107 60.8654H649.507V69.0117V68.99Z" fill="#C35686"/>
<path d="M694.394 62.9236C694.394 71.1132 690.077 75.5331 683.048 75.5331C676.019 75.5331 671.701 71.3516 671.701 62.9236C671.701 55.4706 676.301 51.0508 683.048 51.0508C689.795 51.0508 694.394 55.1889 694.394 62.9236ZM683.048 70.1166C686.193 70.1166 687.604 67.4734 687.604 62.9669C687.604 58.9588 685.955 56.4672 683.048 56.4672C680.141 56.4672 678.492 58.9804 678.492 62.9669C678.492 67.4734 680.032 70.1166 683.048 70.1166Z" fill="#C35686"/>
<path d="M713.53 41.9945C715.07 41.1278 717.218 40.6729 720.125 40.6729V74.0164C718.888 74.688 717.066 75.0564 715.2 75.0564L714.332 71.9148H713.963C712.77 74.2764 710.145 75.5113 707.086 75.5113C700.946 75.5113 698.018 70.9182 698.018 64.1368C698.018 55.8172 702.4 51.0291 709.277 51.0291C710.926 51.0291 712.423 51.3107 713.508 51.8524V41.9945H713.53ZM713.616 57.3771C712.835 56.9655 711.794 56.7922 710.753 56.7922C706.652 56.7922 704.83 59.5654 704.83 63.7035C704.83 67.8417 706.479 69.5749 709.473 69.5749C711.468 69.5749 712.705 68.665 713.616 67.885V57.3771Z" fill="#C35686"/>
<path d="M735.983 70.0946C736.221 67.9497 736.612 65.2848 737.133 63.5949L740.495 52.0904C740.994 51.917 741.775 51.6787 743.229 51.6787C745.051 51.6787 746.331 52.047 747.156 52.5887L743.836 62.9232C742.188 68.1447 740.474 73.1928 738.087 77.0709C735.484 81.2958 732.078 84.1773 726.741 85.8889C725.2 84.6973 723.964 82.5307 723.725 80.3425C727.37 79.3892 729.865 77.3743 731.557 74.9694L723.27 52.5887C724.094 52.047 725.352 51.6787 727.326 51.6787C728.737 51.6787 729.691 51.8954 730.103 52.0904L734.291 63.7465C734.79 65.1548 735.375 67.928 735.614 70.1162H735.983V70.0946Z" fill="#C35686"/>
<path d="M773.516 48.3213V74.2118C772.887 74.5802 771.737 74.7968 770.11 74.7968C768.483 74.7968 767.333 74.5802 766.639 74.2118V48.3213H757.483C757.223 47.7363 756.984 46.5014 756.984 45.2664C756.984 44.0315 757.223 42.8615 757.483 42.2549H782.671C782.953 42.8399 783.17 44.0315 783.17 45.2664C783.17 46.5014 782.953 47.7146 782.671 48.3213H773.516Z" fill="#C35686"/>
<path d="M787.704 65.4152C787.964 68.6 790.264 70.1383 794.755 70.1383C797.662 70.1383 800.222 69.51 801.871 68.7733C802.001 70.5066 801.285 72.7382 800.222 73.9081C798.725 74.7748 796.165 75.5114 793.019 75.5114C785.057 75.5114 780.805 70.9183 780.805 63.5519C780.805 56.1856 785.361 51.0508 792.52 51.0508C799.18 51.0508 802.218 55.1456 802.218 61.147C802.218 62.5986 801.936 64.2452 801.545 65.4152H787.704ZM796.035 60.627C796.403 58.2655 795.536 55.9472 792.26 55.9472C789.439 55.9472 787.704 57.7672 787.53 60.627H796.056H796.035Z" fill="#C35686"/>
<path d="M806.102 52.5887C806.926 52.047 808.293 51.6787 810.202 51.6787C811.656 51.6787 812.654 51.8954 813.066 52.0904L815.517 55.8169C816.016 56.5535 816.515 57.5068 816.754 58.3084H817.123C817.296 57.4418 817.817 56.5318 818.273 55.8169L820.551 52.0904C820.963 51.917 821.917 51.6787 823.327 51.6787C825.193 51.6787 826.517 52.047 827.298 52.5887L820.551 62.9232L828.296 74.2544C827.71 74.6227 826.43 74.8394 824.933 74.8394C823.241 74.8394 821.614 74.6227 820.963 74.2977L817.904 69.8346C817.361 69.0113 816.862 68.188 816.624 67.3214H816.255C816.081 68.1447 815.517 69.0546 815.018 69.8346L812.046 74.2977C811.308 74.6227 809.855 74.8394 808.163 74.8394C806.622 74.8394 805.472 74.6227 804.887 74.2544L812.805 62.6632L806.058 52.6103L806.102 52.5887Z" fill="#C35686"/>
<path d="M845.825 51.9607C846.085 52.5023 846.237 53.6506 846.237 54.7772C846.237 55.9039 846.107 57.0521 845.825 57.5938H839.772V66.1517C839.772 68.34 840.401 69.4666 842.874 69.4666C844.241 69.4666 845.608 69.185 847.018 68.2317C847.257 70.1382 846.519 72.8248 845.608 74.0164C844.285 74.9697 842.701 75.5113 840.423 75.5113C834.826 75.5113 833.177 72.1532 833.177 67.1484V57.5938H829.662C829.662 55.6439 829.988 53.4123 830.573 51.9607H833.177V47.0426C834.826 45.851 837.234 45.266 839.772 45.2227V51.9607H845.825Z" fill="#C35686"/>
<path d="M657.296 168.198H645.884L643.194 175.759C642.803 175.954 642.218 176.062 641.285 176.062C640.417 176.062 639.831 175.954 639.527 175.759L649.485 148.807C649.919 148.655 650.852 148.568 651.677 148.568C652.501 148.568 653.434 148.655 653.868 148.807L663.761 175.759C663.457 175.954 662.828 176.062 661.96 176.062C661.027 176.062 660.441 175.954 660.051 175.759L657.317 168.198H657.296ZM656.233 165.164L654.171 159.315C653.152 156.476 652.306 153.725 651.677 150.887H651.525C650.939 153.616 649.963 156.628 649.03 159.271L646.969 165.164H656.276H656.233Z" fill="#C35686"/>
<path d="M682.591 161.762C685.911 162.585 688.254 164.449 688.254 168.349C688.254 173.96 683.373 176.192 677.081 176.192C673.914 176.192 670.789 176.105 668.338 175.888V149.196C670.638 148.763 672.937 148.524 675.909 148.524C682.244 148.524 686.8 150.518 686.8 155.631C686.8 158.794 685.086 160.896 682.57 161.589V161.741L682.591 161.762ZM671.896 160.397H677.255C680.878 160.397 683.242 158.946 683.242 156.107C683.242 152.944 680.357 151.623 675.888 151.623C674.369 151.623 673.111 151.666 671.896 151.904V160.397ZM671.896 172.92C673.371 173.028 675.063 173.072 676.821 173.072C681.745 173.072 684.631 171.598 684.631 168.305C684.631 165.012 681.81 163.474 677.255 163.474H671.896V172.92Z" fill="#C35686"/>
<path d="M706.022 151.276C700.078 151.276 695.739 154.635 695.739 162.521C695.739 170.407 699.796 173.592 705.632 173.592C708.257 173.592 710.708 172.899 712.509 171.989C712.552 172.964 712.118 174.567 711.533 175.347C709.862 176.214 707.389 176.907 704.569 176.907C696.758 176.907 692.072 171.599 692.072 162.781C692.072 153.075 697.691 148.005 705.35 148.005C707.584 148.005 709.797 148.438 711.359 149.326C711.945 150.15 712.292 151.71 712.184 152.793C710.231 151.775 708.192 151.276 706.022 151.276Z" fill="#C35686"/>
<path d="M718.172 149.131C720.515 148.741 722.663 148.633 725.006 148.633C733.727 148.633 739.889 153.031 739.889 162.477C739.889 171.923 733.749 176.213 725.982 176.213C723.4 176.213 720.797 176.17 718.172 175.975V149.131ZM721.73 172.877C723.097 172.985 724.572 173.028 725.917 173.028C732.295 173.028 736.222 169.605 736.222 162.651C736.222 155.198 731.645 151.731 724.941 151.731C723.878 151.731 722.75 151.774 721.73 151.969V172.877Z" fill="#C35686"/>
<path d="M762.603 148.894C762.798 149.284 762.885 149.782 762.885 150.453C762.885 151.125 762.798 151.623 762.603 152.013H748.935V160.68H761.627C761.822 161.07 761.909 161.546 761.909 162.196C761.909 162.846 761.822 163.366 761.627 163.756H748.935V172.856H762.95C763.145 173.246 763.21 173.744 763.21 174.416C763.21 175.087 763.123 175.629 762.95 176.019H745.377V148.915H762.603V148.894Z" fill="#C35686"/>
<path d="M769.133 148.894H785.491C785.686 149.284 785.773 149.782 785.773 150.453C785.773 151.125 785.686 151.667 785.491 152.057H772.669V161.416H784.58C784.775 161.806 784.862 162.305 784.862 162.976C784.862 163.648 784.775 164.146 784.58 164.536H772.669V175.802C772.322 175.997 771.78 176.084 770.912 176.084C770.044 176.084 769.458 175.997 769.111 175.802V148.894H769.133Z" fill="#C35686"/>
<path d="M802.132 176.907C793.844 176.907 788.963 171.729 788.963 162.868C788.963 153.161 794.777 148.005 802.978 148.005C805.56 148.005 807.903 148.482 809.617 149.413C810.159 150.28 810.506 151.753 810.354 152.88C808.206 151.796 805.907 151.233 803.434 151.233C797.142 151.233 792.608 154.635 792.608 162.586C792.608 170.537 796.665 173.614 802.609 173.614C804.67 173.614 806.709 173.18 808.076 172.595V164.254H801.199C801.09 163.973 800.96 163.431 800.96 162.694C800.96 162.023 801.069 161.481 801.199 161.221H811.461V174.805C809.226 175.932 805.646 176.907 802.088 176.907H802.132Z" fill="#C35686"/>
<path d="M835.868 163.518H821.484V175.802C821.137 175.997 820.594 176.084 819.727 176.084C818.859 176.084 818.273 175.997 817.926 175.802V149.088C818.273 148.893 818.859 148.807 819.727 148.807C820.594 148.807 821.137 148.893 821.484 149.088V160.398H835.868V149.088C836.215 148.893 836.8 148.807 837.668 148.807C838.536 148.807 839.078 148.893 839.426 149.088V175.802C839.078 175.997 838.536 176.084 837.668 176.084C836.8 176.084 836.215 175.997 835.868 175.802V163.518Z" fill="#C35686"/>
<path d="M847.236 149.088C847.583 148.893 848.169 148.807 849.037 148.807C849.905 148.807 850.447 148.893 850.794 149.088V175.802C850.447 175.997 849.905 176.084 849.037 176.084C848.169 176.084 847.583 175.997 847.236 175.802V149.088Z" fill="#C35686"/>
<path d="M863.594 170.147C863.594 177.21 860.969 181.305 855.74 183.84C854.916 183.298 854.287 182.129 854.135 180.959C858.387 178.705 860.036 175.737 860.036 170.667V149.088C860.383 148.893 860.969 148.807 861.836 148.807C862.704 148.807 863.247 148.893 863.594 149.088V170.147Z" fill="#C35686"/>
<path d="M871.252 149.088C871.599 148.893 872.185 148.807 873.053 148.807C873.921 148.807 874.463 148.893 874.81 149.088V160.549H878.043L886.591 149.11C887.024 148.915 887.805 148.807 888.782 148.807C889.758 148.807 890.344 148.915 890.691 149.11L880.928 162.066L891.624 175.759C891.32 175.997 890.604 176.062 889.563 176.062C888.521 176.062 887.719 175.975 887.22 175.759L877.804 163.669H874.788V175.802C874.441 175.997 873.899 176.084 873.031 176.084C872.163 176.084 871.578 175.997 871.23 175.802V149.088H871.252Z" fill="#C35686"/>
<path d="M896.158 175.997V149.088C896.505 148.893 897.091 148.807 897.959 148.807C898.827 148.807 899.369 148.893 899.716 149.088V172.812H912.994C913.189 173.202 913.276 173.744 913.276 174.416C913.276 175.087 913.189 175.629 912.994 176.019H896.158V175.997Z" fill="#C35686"/>
<path d="M941.739 151.341H941.587C941.11 153.595 940.372 156.021 939.635 158.166L933.473 176.04C933.169 176.192 932.454 176.322 931.629 176.322C930.805 176.322 930.11 176.214 929.785 176.04L923.537 158.144C922.951 156.498 922.17 153.616 921.693 151.363H921.541V175.824C921.194 176.019 920.76 176.105 919.935 176.105C919.154 176.105 918.677 176.019 918.33 175.824V149.131C918.916 148.936 919.654 148.828 920.868 148.828C922.148 148.828 922.908 148.936 923.494 149.131L929.481 165.836C930.306 168.132 931.13 170.862 931.586 173.44H931.738C932.215 170.819 933.104 168.067 933.885 165.836L939.7 149.131C940.285 148.936 941.023 148.828 942.281 148.828C943.54 148.828 944.342 148.936 944.928 149.131V175.824C944.581 176.019 944.147 176.105 943.323 176.105C942.498 176.105 942.064 176.019 941.717 175.824V151.363L941.739 151.341Z" fill="#C35686"/>
<path d="M956.058 175.802C955.71 175.997 955.233 176.083 954.409 176.083C953.584 176.083 953.085 175.997 952.738 175.802V149.044C953.281 148.893 953.953 148.763 955.081 148.763C956.209 148.763 956.795 148.871 957.316 149.044L967.946 166.485C969.075 168.327 970.007 170.385 970.593 172.443H970.745V149.066C971.092 148.871 971.57 148.784 972.394 148.784C973.218 148.784 973.717 148.871 974.064 149.066V175.91C973.587 176.062 972.98 176.192 971.83 176.192C970.767 176.192 970.116 176.083 969.682 175.91L958.596 157.689C957.62 156.129 956.752 154.071 956.209 152.143H956.058V175.78V175.802Z" fill="#C35686"/>
<path d="M665.605 208.951C665.605 218.462 660.811 223.705 653.348 223.705C645.884 223.705 641.09 218.744 641.09 208.951C641.09 200.089 646.123 194.781 653.348 194.781C660.572 194.781 665.605 199.743 665.605 208.951ZM653.348 220.455C658.945 220.455 661.939 216.165 661.939 208.951C661.939 202.169 658.576 197.988 653.348 197.988C647.729 197.988 644.756 202.169 644.756 208.951C644.756 216.252 647.837 220.455 653.348 220.455Z" fill="#C35686"/>
<path d="M671.766 195.929C673.957 195.496 676.452 195.301 679.033 195.301C686.345 195.301 690.705 198.074 690.705 204.357C690.705 210.64 686.258 213.478 680.162 213.478C678.708 213.478 676.365 213.327 675.324 213.175V222.621C674.976 222.816 674.434 222.903 673.566 222.903C672.698 222.903 672.113 222.816 671.766 222.621V195.929ZM675.324 198.746V210.012C676.387 210.207 678.209 210.358 679.663 210.358C684.392 210.358 687.082 208.755 687.082 204.617C687.082 200.176 684.002 198.421 679.077 198.421C677.797 198.421 676.495 198.507 675.324 198.724V198.746Z" fill="#C35686"/>
<path d="M718.411 208.951C718.411 215.277 716.306 219.675 712.662 221.972C713.833 224.853 715.938 226.067 719.018 226.067C720.472 226.067 721.665 225.785 722.771 225.373C722.858 226.305 722.511 227.713 721.882 228.385C720.906 228.818 719.647 229.165 717.933 229.165C713.79 229.165 710.904 226.977 709.429 223.315C708.496 223.597 707.281 223.705 706.11 223.705C698.256 223.705 693.809 218.744 693.809 208.951C693.809 200.089 698.842 194.781 706.11 194.781C713.377 194.781 718.411 199.743 718.411 208.951ZM706.11 220.455C711.729 220.455 714.744 216.165 714.744 208.951C714.744 202.169 711.382 197.988 706.11 197.988C700.447 197.988 697.475 202.169 697.475 208.951C697.475 216.252 700.556 220.455 706.11 220.455Z" fill="#C35686"/>
<path d="M724.485 195.929C726.632 195.496 729.127 195.301 731.666 195.301C738.89 195.301 743.229 197.922 743.229 203.924C743.229 208.019 741.19 210.553 738.066 211.68L745.03 222.556C744.726 222.795 744.01 222.86 743.142 222.86C742.014 222.86 741.342 222.773 740.799 222.556L734.551 212.482C734.247 212.525 733.38 212.568 732.794 212.568C731.384 212.568 729.084 212.417 728.021 212.265V222.6C727.674 222.795 727.131 222.881 726.264 222.881C725.396 222.881 724.81 222.795 724.463 222.6V195.907L724.485 195.929ZM728.043 198.746V209.167C729.106 209.362 730.885 209.513 732.295 209.513C736.981 209.513 739.606 207.997 739.606 204.162C739.606 200.067 736.569 198.421 731.709 198.421C730.451 198.421 729.214 198.507 728.043 198.724V198.746Z" fill="#C35686"/>
<path d="M756.399 220.455C760.694 220.455 762.538 218.657 762.538 215.862C762.538 208.561 748.697 211.876 748.697 202.278C748.697 197.489 751.951 194.781 757.332 194.781C759.87 194.781 762.126 195.366 764.014 196.623C764.556 197.511 764.903 199.201 764.708 200.414C762.712 198.941 760.217 197.988 757.527 197.988C754.056 197.988 752.298 199.504 752.298 201.801C752.298 208.582 766.096 205.592 766.096 215.385C766.096 221.668 761.605 223.683 756.377 223.683C753.296 223.683 750.519 222.99 748.654 221.928C748.024 220.953 747.786 219.307 747.959 218.137C750.194 219.589 753.513 220.433 756.442 220.433L756.399 220.455Z" fill="#C35686"/>
<path d="M779.786 198.855V222.622C779.439 222.817 778.896 222.904 778.028 222.904C777.161 222.904 776.575 222.817 776.228 222.622V198.855H767.745C767.55 198.465 767.463 197.923 767.463 197.251C767.463 196.58 767.55 196.081 767.745 195.691H788.203C788.399 196.081 788.485 196.58 788.485 197.251C788.485 197.923 788.399 198.465 788.203 198.855H779.764H779.786Z" fill="#C35686"/>
<path d="M796.382 212.851C796.382 218.202 798.638 220.455 803.411 220.455C808.531 220.455 810.679 217.379 810.679 212.721V195.865C811.026 195.67 811.569 195.583 812.437 195.583C813.304 195.583 813.803 195.67 814.15 195.865V212.439C814.15 219.35 810.831 223.683 803.26 223.683C796.274 223.683 792.824 220.217 792.824 213.154V195.865C793.171 195.67 793.757 195.583 794.625 195.583C795.493 195.583 796.035 195.67 796.382 195.865V212.829V212.851Z" fill="#C35686"/>
<path d="M829.923 220.455C830.357 218.223 830.986 215.775 831.593 214.02L837.972 195.929C838.406 195.691 838.796 195.626 839.772 195.626C840.749 195.626 841.183 195.734 841.617 195.929L831.941 222.881C831.463 223.033 830.617 223.12 829.749 223.12C828.882 223.12 828.057 223.033 827.602 222.881L817.947 195.929C818.251 195.734 818.924 195.626 819.791 195.626C820.659 195.626 821.267 195.734 821.657 195.929L828.101 214.15C828.686 215.818 829.359 218.245 829.771 220.477H829.923V220.455Z" fill="#C35686"/>
<path d="M869.299 220.65C869.538 218.7 869.841 216.945 870.275 215.299L875.243 195.864C875.547 195.669 876.176 195.583 876.957 195.583C877.825 195.583 878.281 195.669 878.606 195.864L871.49 222.86C870.991 223.011 870.036 223.098 869.104 223.098C868.171 223.098 867.151 223.011 866.652 222.86L862.27 204.141C861.836 202.277 861.38 199.937 861.098 197.858H860.946C860.708 199.851 860.252 202.386 859.775 204.227L855.132 222.882C854.633 223.033 853.657 223.12 852.702 223.12C851.748 223.12 850.836 223.033 850.316 222.882L843.547 195.929C843.894 195.734 844.415 195.626 845.261 195.626C846.107 195.626 846.714 195.713 847.105 195.929L851.748 215.082C852.095 216.49 852.442 218.678 852.68 220.672H852.832C853.071 218.678 853.418 216.62 853.765 215.168L858.647 195.626C859.146 195.474 860.122 195.388 861.076 195.388C862.031 195.388 863.029 195.474 863.528 195.626L868.106 215.168C868.496 216.923 868.887 218.765 869.125 220.672H869.277L869.299 220.65Z" fill="#C35686"/>
<path d="M889.715 203.491C890.301 204.401 890.778 205.159 891.082 206.026H891.234C891.581 205.159 892.102 204.314 892.687 203.447L897.655 195.929C898.133 195.734 898.87 195.626 899.76 195.626C900.736 195.626 901.279 195.734 901.626 195.929L893.143 208.604L902.125 222.578C901.777 222.816 901.148 222.881 900.129 222.881C899.109 222.881 898.458 222.795 897.981 222.578L892.318 213.652C891.733 212.764 891.255 211.984 890.952 211.117H890.8C890.453 211.984 889.932 212.829 889.346 213.695L883.489 222.578C883.011 222.816 882.274 222.881 881.384 222.881C880.495 222.881 879.735 222.795 879.432 222.578L888.847 208.495L880.842 195.929C881.102 195.691 881.731 195.626 882.643 195.626C883.619 195.626 884.4 195.734 884.877 195.929L889.715 203.491Z" fill="#C35686"/>
<path d="M903.447 195.929C903.751 195.734 904.51 195.626 905.356 195.626C906.333 195.626 906.962 195.734 907.352 195.929L912.668 205.787C913.405 207.196 914.034 208.712 914.468 210.381H914.62C915.054 208.777 915.792 206.979 916.464 205.701L921.693 195.908C922.083 195.713 922.712 195.604 923.645 195.604C924.47 195.604 925.121 195.713 925.446 195.908L916.269 212.807V222.6C915.922 222.795 915.379 222.882 914.512 222.882C913.644 222.882 913.058 222.795 912.711 222.6V212.85L903.447 195.929Z" fill="#C35686"/>
<path d="M931.846 219.48V219.632H946.577C946.772 220.022 946.859 220.52 946.859 221.192C946.859 221.864 946.772 222.405 946.577 222.795H927.876C927.529 221.929 927.398 220.997 927.398 219.957L941.934 198.963V198.811H928.114C927.919 198.421 927.832 197.923 927.832 197.251C927.832 196.58 927.919 196.081 928.114 195.691H945.883C946.186 196.515 946.317 197.36 946.317 198.465L931.868 219.502L931.846 219.48Z" fill="#C35686"/>
<path d="M652.285 277.609C651.156 279.083 649.356 279.906 646.774 279.906C643.411 279.906 640.482 278.303 640.482 274.056C640.482 269.485 643.889 267.621 648.293 267.621C649.573 267.621 651.07 267.773 652.198 268.25V267.231C652.198 263.982 650.939 262.638 647.902 262.638C645.668 262.638 643.563 263.332 641.936 264.35C641.654 263.375 641.784 261.858 642.327 260.948C643.65 260.168 645.95 259.54 648.531 259.54C653.174 259.54 655.56 261.533 655.56 266.885V275.378C655.56 276.504 656.146 276.829 656.927 276.829C657.708 276.829 658.381 276.548 658.771 276.288C658.858 277.306 658.62 278.519 658.099 279.213C657.426 279.603 656.58 279.906 655.517 279.906C653.76 279.906 652.74 279.039 652.436 277.609H652.285ZM652.198 270.98C651.222 270.633 650.137 270.395 648.792 270.395C645.559 270.395 643.867 271.846 643.867 273.904C643.867 275.963 645.516 276.829 647.62 276.829C649.291 276.829 651.178 276.288 652.198 274.793V270.98Z" fill="#C35686"/>
<path d="M665.691 257.785C665.691 259.388 665.605 261.208 665.409 262.703H665.561C666.299 260.948 668.143 259.54 671.31 259.54C675.324 259.54 679.207 261.966 679.207 269.051C679.207 276.136 675.346 279.906 668.729 279.906C666.581 279.906 664.238 279.516 662.285 278.692V251.199C663.066 250.722 664.238 250.462 665.691 250.462V257.807V257.785ZM665.691 276.504C666.472 276.786 667.644 276.937 668.772 276.937C673.805 276.937 675.714 273.926 675.714 269.441C675.714 264.956 673.805 262.66 670.399 262.66C667.948 262.66 666.602 263.916 665.67 265.281V276.526L665.691 276.504Z" fill="#C35686"/>
<path d="M693.05 276.699C695.046 276.699 696.716 276.114 698.17 275.248C698.278 276.309 697.866 277.934 697.237 278.649C695.979 279.343 694.221 279.906 691.922 279.906C686.129 279.906 682.896 276.093 682.896 269.875C682.896 262.768 687.084 259.54 692.312 259.54C694.417 259.54 696.065 260.017 697.15 260.71C697.693 261.447 697.974 262.942 697.779 264.068C696.261 263.137 694.807 262.703 692.985 262.703C688.993 262.703 686.389 264.891 686.389 269.615C686.389 274.338 688.928 276.721 693.071 276.721L693.05 276.699Z" fill="#C35686"/>
<path d="M714.962 251.199C715.743 250.722 716.914 250.462 718.368 250.462V278.909C717.695 279.299 716.806 279.451 715.829 279.451L715.352 277.219H715.2C714.029 278.887 712.076 279.906 709.386 279.906C704.656 279.906 701.424 276.742 701.424 270.308C701.424 263.331 705.177 259.54 710.948 259.54C712.597 259.54 714.029 259.843 714.962 260.276V251.177V251.199ZM714.962 263.18C714.072 262.746 712.9 262.551 711.686 262.551C706.848 262.551 704.895 265.715 704.895 270.113C704.895 274.511 706.804 276.699 710.319 276.699C712.705 276.699 713.985 275.637 714.962 274.663V263.158V263.18Z" fill="#C35686"/>
<path d="M727.024 270.784C727.176 275.031 729.845 276.829 734.054 276.829C736.44 276.829 738.436 276.244 739.955 275.356C740.063 276.439 739.651 277.891 739.087 278.519C737.872 279.256 735.854 279.927 733.273 279.927C726.981 279.927 723.51 276.027 723.51 269.939C723.51 263.851 727.024 259.562 732.817 259.562C737.98 259.562 740.367 262.92 740.367 267.643C740.367 268.813 740.215 269.874 739.889 270.806H727.046L727.024 270.784ZM736.982 267.946C737.243 265.368 736.44 262.486 732.643 262.486C729.324 262.486 727.328 264.675 727.046 267.946H736.961H736.982Z" fill="#C35686"/>
<path d="M746.288 260.32V257.113C746.288 251.567 748.935 249.898 752.493 249.898C754.098 249.898 755.335 250.245 756.355 250.96C756.897 251.697 757.136 253.192 756.94 254.275C755.682 253.343 754.511 252.997 753.187 252.997C750.454 252.997 749.673 254.47 749.673 256.896V260.32H754.901C755.053 260.623 755.14 261.143 755.14 261.836C755.14 262.53 755.053 263.093 754.901 263.396H749.673V278.931C749.326 279.126 748.805 279.212 748.002 279.212C747.199 279.212 746.635 279.126 746.288 278.931V263.396H743.359C743.359 262.226 743.511 261.143 743.837 260.32H746.288Z" fill="#C35686"/>
<path d="M761.671 273.168C761.193 273.558 760.933 274.294 760.933 274.836C760.933 276.287 762.734 276.677 765.814 276.677C770.891 276.677 774.601 277.652 774.601 282.419C774.601 287.185 770.891 289.005 765.098 289.005C759.913 289.005 755.965 287.402 755.965 283.112C755.965 280.534 757.418 279.104 758.98 278.432V278.281C758.048 277.652 757.527 276.721 757.527 275.464C757.527 274.056 758.156 272.886 759.371 272.236V272.084C758.091 271.023 757.115 269.441 757.115 266.581C757.115 262.01 760.152 259.562 764.643 259.562C766.053 259.562 767.376 259.843 768.461 260.341H773.842C774.145 261.035 774.319 262.096 774.319 263.028H771.282V263.18C771.824 263.873 772.214 264.935 772.214 266.646C772.214 270.979 769.524 273.601 764.665 273.601C763.645 273.601 762.56 273.493 761.649 273.168H761.671ZM761.627 279.299C760.174 279.971 759.328 281.206 759.328 282.657C759.328 285.3 762.256 286.167 765.38 286.167C768.852 286.167 771.282 285.105 771.282 282.614C771.282 280.556 769.719 279.581 765.185 279.581C763.818 279.581 762.799 279.494 761.627 279.299ZM764.643 270.763C767.463 270.763 768.982 269.159 768.982 266.56C768.982 263.96 767.42 262.421 764.643 262.421C761.866 262.421 760.347 264.025 760.347 266.56C760.347 269.246 761.866 270.763 764.643 270.763Z" fill="#C35686"/>
<path d="M781.781 278.931C781.434 279.126 780.913 279.212 780.11 279.212C779.308 279.212 778.744 279.126 778.396 278.931V251.199C779.178 250.722 780.349 250.462 781.803 250.462V257.525C781.803 259.713 781.716 261.338 781.499 262.898H781.651C782.475 261.186 784.276 259.54 788.094 259.54C791.262 259.54 794.776 260.623 794.776 266.95V278.931C794.429 279.126 793.908 279.212 793.106 279.212C792.303 279.212 791.739 279.126 791.392 278.931V267.665C791.392 264.588 790.372 262.703 787.14 262.703C784.298 262.703 782.649 264.155 781.824 265.715V278.931H781.781Z" fill="#C35686"/>
<path d="M805.126 253.625C805.126 255.142 804.215 255.965 802.87 255.965C801.394 255.965 800.613 255.185 800.613 253.668C800.613 252.26 801.546 251.415 802.87 251.415C804.193 251.415 805.126 252.195 805.126 253.647V253.625ZM801.134 260.536C801.481 260.341 802.045 260.255 802.848 260.255C803.651 260.255 804.171 260.341 804.518 260.536V278.952C804.171 279.147 803.651 279.234 802.848 279.234C802.045 279.234 801.481 279.147 801.134 278.952V260.536Z" fill="#C35686"/>
<path d="M814.932 275.616C814.932 282.354 812.676 285.69 809.226 288.485C808.25 288.139 807.513 287.315 807.23 286.232C809.682 284.13 811.526 281.596 811.526 276.526V260.536C811.873 260.342 812.416 260.255 813.24 260.255C814.064 260.255 814.563 260.342 814.911 260.536V275.638L814.932 275.616ZM815.475 253.603C815.475 255.12 814.585 255.943 813.218 255.943C811.743 255.943 810.962 255.163 810.962 253.647C810.962 252.239 811.895 251.394 813.218 251.394C814.542 251.394 815.475 252.174 815.475 253.625V253.603Z" fill="#C35686"/>
<path d="M827.667 267.535L833.416 260.363C833.698 260.255 834.306 260.168 834.87 260.168C835.889 260.168 836.822 260.363 837.213 260.601L830.379 269.029C832.809 272.539 834.957 275.507 838.146 278.931C837.842 279.126 836.974 279.234 836.15 279.234C835.13 279.234 834.11 279.126 833.698 278.931C831.312 276.201 829.446 273.579 827.342 270.351H824.912V278.931C824.565 279.126 824.044 279.212 823.241 279.212C822.439 279.212 821.874 279.126 821.527 278.931V251.199C822.308 250.722 823.48 250.462 824.933 250.462V267.556H827.71L827.667 267.535Z" fill="#C35686"/>
<path d="M845.89 279.906C843.244 279.906 841.898 278.389 841.898 275.269V251.199C842.679 250.722 843.851 250.462 845.305 250.462V274.641C845.305 276.352 845.934 276.786 847.062 276.786C847.995 276.786 848.862 276.482 849.448 276.006C849.535 277.132 849.253 278.497 848.711 279.212C848.038 279.646 847.018 279.906 845.89 279.906Z" fill="#C35686"/>
<path d="M856.716 278.931C856.369 279.126 855.849 279.213 855.046 279.213C854.243 279.213 853.679 279.126 853.332 278.931V260.558C854.005 260.212 855.003 260.017 856.109 260.017L856.348 262.942H856.499C857.367 261.23 859.125 259.54 862.834 259.54C865.329 259.54 867.629 260.233 868.736 263.05H868.887C869.668 261.338 871.534 259.54 875.374 259.54C878.498 259.54 881.904 260.623 881.904 266.95V278.931C881.557 279.126 881.037 279.213 880.234 279.213C879.431 279.213 878.867 279.126 878.52 278.931V267.621C878.52 264.61 877.544 262.703 874.42 262.703C871.599 262.703 870.167 264.112 869.3 265.736C869.343 265.975 869.386 266.798 869.386 267.448V278.909C869.039 279.104 868.519 279.191 867.716 279.191C866.913 279.191 866.349 279.104 866.002 278.909V267.643C866.002 264.631 865.026 262.682 861.902 262.682C859.168 262.682 857.563 264.133 856.782 265.693V278.909L856.716 278.931Z" fill="#C35686"/>
<path d="M891.668 278.931C891.321 279.126 890.8 279.213 889.997 279.213C889.194 279.213 888.63 279.126 888.283 278.931V260.558C888.956 260.212 889.954 260.017 891.06 260.017L891.299 262.942H891.451C892.319 261.143 894.271 259.54 897.938 259.54C901.018 259.54 904.489 260.623 904.489 266.95V278.931C904.142 279.126 903.622 279.213 902.819 279.213C902.016 279.213 901.452 279.126 901.105 278.931V267.621C901.105 264.61 900.129 262.703 896.896 262.703C894.119 262.703 892.514 264.155 891.711 265.715V278.931H891.668Z" fill="#C35686"/>
<path d="M658.576 312.795C658.576 319.576 655.17 323.259 649.659 323.259C643.866 323.259 640.721 319.749 640.721 312.795C640.721 306.555 644.235 302.894 649.659 302.894C655.083 302.894 658.576 306.36 658.576 312.795ZM649.659 320.291C653.282 320.291 655.083 317.475 655.083 312.795C655.083 308.505 653.087 305.84 649.659 305.84C645.993 305.84 644.192 308.527 644.192 312.795C644.192 317.518 646.036 320.291 649.659 320.291Z" fill="#C35686"/>
<path d="M666.777 306.186C667.558 304.474 669.315 302.871 672.721 302.871C676.713 302.871 680.575 305.254 680.575 312.361C680.575 318.514 677.733 323.237 671.007 323.237C669.64 323.237 667.992 323.042 667.015 322.544V331.362C666.668 331.557 666.148 331.643 665.345 331.643C664.542 331.643 663.978 331.557 663.631 331.362V303.889C664.325 303.543 665.388 303.348 666.408 303.348L666.646 306.186H666.798H666.777ZM667.015 319.575C667.948 319.965 669.076 320.204 670.378 320.204C675.216 320.204 677.103 316.997 677.103 312.664C677.103 308.331 675.194 306.034 671.788 306.034C669.207 306.034 667.926 307.399 667.015 308.678V319.554V319.575Z" fill="#C35686"/>
<path d="M697.67 320.269C696.889 321.829 695.218 323.237 692.051 323.237C687.95 323.237 684.002 320.897 684.002 313.747C684.002 306.598 687.95 302.871 694.394 302.871C696.78 302.871 698.928 303.369 700.967 304.539V331.34C700.62 331.535 700.1 331.622 699.297 331.622C698.494 331.622 697.93 331.535 697.583 331.34V325.382C697.583 323.67 697.67 321.785 697.865 320.269H697.713H697.67ZM697.561 306.468C696.694 306.034 695.804 305.796 694.394 305.796C689.469 305.796 687.473 308.829 687.473 313.357C687.473 317.885 689.426 320.074 692.875 320.074C695.327 320.074 696.672 318.86 697.561 317.452V306.446V306.468Z" fill="#C35686"/>
<path d="M716.067 302.871C716.935 302.871 717.673 302.979 718.107 303.218C718.41 303.759 718.606 304.431 718.606 305.406C718.606 306.099 718.497 306.576 718.367 306.858C717.738 306.511 716.892 306.273 715.937 306.273C713.551 306.273 711.88 307.789 710.904 310.692V322.284C710.557 322.479 710.036 322.565 709.233 322.565C708.431 322.565 707.867 322.479 707.52 322.284V303.911C708.192 303.564 709.19 303.369 710.296 303.369L710.578 306.793H710.73C711.555 304.453 713.073 302.893 716.089 302.893L716.067 302.871Z" fill="#C35686"/>
<path d="M727.349 320.269C729.888 320.269 731.341 319.25 731.341 317.582C731.341 313.184 721.882 314.809 721.882 308.374C721.882 304.778 724.117 302.871 728.174 302.871C729.975 302.871 731.797 303.261 733.25 304.236C733.749 305.016 734.032 306.663 733.88 307.638C732.361 306.424 730.452 305.796 728.521 305.796C726.265 305.796 725.31 306.663 725.31 308.028C725.31 312.036 734.769 310.519 734.769 317.149C734.769 321.569 731.537 323.237 727.436 323.237C725.44 323.237 723.249 322.847 721.817 321.98C721.231 321.114 721.036 319.402 721.188 318.427C722.707 319.554 725.288 320.269 727.349 320.269Z" fill="#C35686"/>
<path d="M740.452 303.651V299.361C741.276 298.69 742.556 298.343 743.858 298.3V303.651H749.607C749.759 303.955 749.846 304.475 749.846 305.168C749.846 305.861 749.759 306.424 749.607 306.728H743.858V316.759C743.858 318.861 744.4 320.074 746.743 320.074C747.915 320.074 749.325 319.641 750.497 318.666C750.649 319.879 750.258 321.439 749.672 322.132C748.653 322.825 747.416 323.215 745.724 323.215C741.971 323.215 740.452 321.265 740.452 317.171V306.706H737.566C737.566 305.536 737.718 304.453 738.044 303.63H740.474L740.452 303.651Z" fill="#C35686"/>
<path d="M767.138 320.312C766.444 321.634 764.708 323.237 760.89 323.237C757.766 323.237 754.338 322.11 754.338 315.784V304.128C755.162 303.695 756.29 303.435 757.744 303.435V315.134C757.744 318.297 758.72 320.052 761.931 320.052C764.469 320.052 766.162 318.926 767.008 317.604V303.868C767.355 303.673 767.897 303.586 768.722 303.586C769.546 303.586 770.045 303.673 770.414 303.868V322.24C769.785 322.63 768.852 322.782 767.789 322.782L767.312 320.334H767.16L767.138 320.312Z" fill="#C35686"/>
<path d="M783.452 320.161C783.69 318.753 784.124 317.193 784.471 316.174L788.962 303.738C789.244 303.63 789.635 303.5 790.372 303.5C791.305 303.5 791.891 303.695 792.325 303.977L785.448 322.306C784.189 322.652 782.823 322.782 781.26 322.782L774.145 303.977C774.578 303.695 775.273 303.5 776.206 303.5C776.9 303.5 777.334 303.608 777.572 303.738L782.172 316.174C782.562 317.258 782.996 318.753 783.256 320.161H783.408H783.452Z" fill="#C35686"/>
<path d="M814.692 320.009C814.931 318.362 815.321 316.391 815.755 314.853L818.966 303.738C819.248 303.63 819.639 303.5 820.333 303.5C821.157 303.5 821.743 303.695 822.177 303.933L816.666 322.349C815.582 322.696 814.171 322.847 812.609 322.847L809.29 311.061C808.856 309.588 808.509 307.898 808.357 306.295H808.205C808.053 307.898 807.62 309.653 807.142 311.169L803.671 322.327C802.586 322.674 801.241 322.826 799.723 322.826L794.104 303.955C794.494 303.673 795.036 303.478 795.969 303.478C796.642 303.478 797.097 303.586 797.336 303.716L800.612 314.918C801.111 316.629 801.48 318.276 801.697 319.987H801.849C802.001 318.384 802.391 316.586 802.738 315.394L806.209 303.998C807.272 303.608 808.552 303.413 810.353 303.413L813.521 315.308C813.824 316.521 814.258 318.427 814.54 319.987H814.692V320.009Z" fill="#C35686"/>
<path d="M831.659 308.266C832.136 308.938 832.635 309.826 832.873 310.411H833.025C833.177 309.87 833.763 308.895 834.197 308.266L837.234 303.695C837.473 303.608 837.972 303.5 838.709 303.5C839.686 303.5 840.358 303.695 840.77 303.977L834.826 312.6L841.617 322.284C841.269 322.479 840.684 322.588 839.772 322.588C838.948 322.588 838.015 322.479 837.733 322.306L833.98 316.933C833.481 316.196 832.96 315.373 832.722 314.745H832.57C832.418 315.329 831.832 316.218 831.355 316.889L827.601 322.306C827.168 322.501 826.343 322.588 825.54 322.588C824.673 322.588 824.087 322.501 823.783 322.284L830.704 312.535L824.759 303.998C825.193 303.717 825.931 303.522 826.907 303.522C827.688 303.522 828.187 303.63 828.426 303.717L831.593 308.288L831.659 308.266Z" fill="#C35686"/>
<path d="M852.507 320.833C852.746 319.229 853.093 317.626 853.527 316.413L857.866 303.738C858.148 303.63 858.538 303.5 859.232 303.5C860.165 303.5 860.751 303.695 861.185 303.977L858.213 312.318C856.803 316.304 855.132 320.941 853.483 324.017C851.379 328.004 848.797 330.452 844.458 331.86C843.59 331.189 843.091 330.257 842.983 329.087C846.736 328.026 849.036 325.729 850.446 323.086L842.939 303.977C843.373 303.695 844.111 303.5 845.001 303.5C845.695 303.5 846.129 303.608 846.367 303.738L851.205 316.413C851.639 317.539 852.073 319.251 852.333 320.833H852.485H852.507Z" fill="#C35686"/>
<path d="M867.694 319.294V319.446H877.739C877.891 319.749 877.977 320.226 877.977 320.919C877.977 321.612 877.891 322.132 877.739 322.436H863.637C863.377 321.807 863.203 320.919 863.203 320.009L873.161 306.75V306.598H863.463C863.463 305.471 863.615 304.367 863.941 303.63H877.023C877.305 304.258 877.5 305.146 877.5 306.121L867.694 319.273V319.294Z" fill="#C35686"/>
<path d="M651.893 392.112V415.88C651.546 416.075 651.004 416.161 650.136 416.161C649.268 416.161 648.682 416.075 648.335 415.88V392.112H639.852C639.657 391.722 639.57 391.181 639.57 390.509C639.57 389.838 639.657 389.339 639.852 388.949H660.311C660.506 389.339 660.593 389.838 660.593 390.509C660.593 391.181 660.506 391.722 660.311 392.112H651.871H651.893Z" fill="#C35686"/>
<path d="M666.69 390.553C666.69 392.069 665.779 392.893 664.434 392.893C662.959 392.893 662.178 392.113 662.178 390.596C662.178 389.188 663.111 388.343 664.434 388.343C665.757 388.343 666.69 389.123 666.69 390.574V390.553ZM662.698 397.464C663.046 397.269 663.61 397.182 664.412 397.182C665.215 397.182 665.736 397.269 666.083 397.464V415.88C665.736 416.075 665.215 416.162 664.412 416.162C663.61 416.162 663.046 416.075 662.698 415.88V397.464Z" fill="#C35686"/>
<path d="M677.558 413.865C680.097 413.865 681.55 412.847 681.55 411.179C681.55 406.781 672.091 408.406 672.091 401.971C672.091 398.374 674.326 396.468 678.383 396.468C680.184 396.468 682.028 396.858 683.459 397.833C683.958 398.613 684.241 400.259 684.089 401.234C682.57 400.021 680.661 399.393 678.73 399.393C676.474 399.393 675.519 400.259 675.519 401.624C675.519 405.632 684.978 404.116 684.978 410.745C684.978 415.144 681.746 416.834 677.645 416.834C675.649 416.834 673.458 416.444 672.026 415.577C671.44 414.71 671.245 412.999 671.397 412.024C672.916 413.15 675.497 413.865 677.58 413.865H677.558Z" fill="#C35686"/>
<path d="M700.251 414.537C699.123 416.01 697.322 416.834 694.741 416.834C691.378 416.834 688.449 415.23 688.449 410.984C688.449 406.412 691.855 404.549 696.259 404.549C697.539 404.549 699.036 404.701 700.165 405.177V404.159C700.165 400.909 698.906 399.566 695.869 399.566C693.634 399.566 691.53 400.259 689.903 401.278C689.621 400.303 689.751 398.786 690.293 397.876C691.617 397.096 693.916 396.468 696.498 396.468C701.141 396.468 703.527 398.461 703.527 403.812V412.305C703.527 413.432 704.113 413.757 704.894 413.757C705.675 413.757 706.348 413.475 706.738 413.215C706.825 414.234 706.586 415.447 706.066 416.14C705.393 416.53 704.547 416.834 703.484 416.834C701.727 416.834 700.707 415.967 700.403 414.537H700.251ZM700.165 407.907C699.188 407.561 698.103 407.322 696.758 407.322C693.526 407.322 691.834 408.774 691.834 410.832C691.834 412.89 693.482 413.757 695.587 413.757C697.257 413.757 699.145 413.215 700.165 411.72V407.907Z" fill="#C35686"/>
<path d="M725.201 413.713C729.497 413.713 731.341 411.915 731.341 409.12C731.341 401.818 717.521 405.133 717.521 395.535C717.521 390.747 720.754 388.039 726.156 388.039C728.694 388.039 730.951 388.624 732.838 389.881C733.38 390.791 733.728 392.459 733.532 393.672C731.536 392.199 729.041 391.246 726.351 391.246C722.88 391.246 721.123 392.762 721.123 395.059C721.123 401.84 734.921 398.85 734.921 408.643C734.921 414.926 730.43 416.941 725.201 416.941C722.121 416.941 719.344 416.248 717.456 415.186C716.827 414.211 716.588 412.565 716.762 411.395C718.997 412.846 722.316 413.691 725.245 413.691L725.201 413.713Z" fill="#C35686"/>
<path d="M750.15 414.537C749.022 416.01 747.221 416.834 744.639 416.834C741.276 416.834 738.348 415.23 738.348 410.984C738.348 406.412 741.754 404.549 746.158 404.549C747.438 404.549 748.935 404.701 750.063 405.177V404.159C750.063 400.909 748.805 399.566 745.767 399.566C743.533 399.566 741.428 400.259 739.78 401.278C739.519 400.303 739.628 398.786 740.17 397.876C741.493 397.096 743.793 396.468 746.375 396.468C751.018 396.468 753.404 398.461 753.404 403.812V412.305C753.404 413.432 753.99 413.757 754.771 413.757C755.552 413.757 756.224 413.475 756.615 413.215C756.702 414.234 756.463 415.447 755.942 416.14C755.27 416.53 754.424 416.834 753.361 416.834C751.603 416.834 750.584 415.967 750.28 414.537H750.128H750.15ZM750.063 407.907C749.087 407.561 747.98 407.322 746.657 407.322C743.403 407.322 741.732 408.774 741.732 410.832C741.732 412.89 743.381 413.757 745.485 413.757C747.156 413.757 749.043 413.215 750.063 411.72V407.907Z" fill="#C35686"/>
<path d="M763.732 415.859C763.385 416.054 762.864 416.14 762.062 416.14C761.259 416.14 760.695 416.054 760.348 415.859V397.486C761.02 397.139 762.018 396.944 763.125 396.944L763.363 399.869H763.515C764.383 398.071 766.336 396.468 770.002 396.468C773.083 396.468 776.554 397.551 776.554 403.877V415.859C776.207 416.054 775.686 416.14 774.883 416.14C774.081 416.14 773.517 416.054 773.169 415.859V404.549C773.169 401.538 772.193 399.631 768.961 399.631C766.184 399.631 764.578 401.083 763.776 402.642V415.859H763.732Z" fill="#C35686"/>
<path d="M787.748 413.865C790.286 413.865 791.74 412.847 791.74 411.179C791.74 406.781 782.281 408.406 782.281 401.971C782.281 398.374 784.515 396.468 788.572 396.468C790.373 396.468 792.217 396.858 793.649 397.833C794.148 398.613 794.43 400.259 794.278 401.234C792.759 400.021 790.85 399.393 788.919 399.393C786.663 399.393 785.709 400.259 785.709 401.624C785.709 405.632 795.168 404.116 795.168 410.745C795.168 415.144 791.935 416.834 787.835 416.834C785.839 416.834 783.648 416.444 782.216 415.577C781.63 414.71 781.435 412.999 781.586 412.024C783.105 413.15 785.687 413.865 787.77 413.865H787.748Z" fill="#C35686"/>
<path d="M808.531 389.188C810.722 388.755 813.217 388.56 815.799 388.56C823.11 388.56 827.471 391.333 827.471 397.616C827.471 403.899 823.024 406.737 816.927 406.737C815.474 406.737 813.131 406.585 812.089 406.434V415.88C811.742 416.075 811.2 416.162 810.332 416.162C809.464 416.162 808.878 416.075 808.531 415.88V389.188ZM812.089 392.004V403.271C813.152 403.466 814.975 403.617 816.428 403.617C821.158 403.617 823.848 402.014 823.848 397.876C823.848 393.434 820.767 391.679 815.842 391.679C814.562 391.679 813.261 391.766 812.089 391.983V392.004Z" fill="#C35686"/>
<path d="M840.163 396.468C841.031 396.468 841.769 396.576 842.202 396.814C842.506 397.356 842.701 398.028 842.701 399.003C842.701 399.696 842.593 400.173 842.463 400.454C841.834 400.108 840.987 399.869 840.033 399.869C837.646 399.869 835.976 401.386 835 404.289V415.88C834.653 416.075 834.132 416.162 833.329 416.162C832.526 416.162 831.962 416.075 831.615 415.88V397.508C832.288 397.161 833.286 396.966 834.392 396.966L834.674 400.389H834.826C835.651 398.049 837.169 396.489 840.185 396.489L840.163 396.468Z" fill="#C35686"/>
<path d="M862.531 406.391C862.531 413.172 859.125 416.855 853.614 416.855C847.822 416.855 844.676 413.345 844.676 406.391C844.676 400.151 848.19 396.489 853.614 396.489C859.038 396.489 862.531 399.956 862.531 406.391ZM853.614 413.887C857.237 413.887 859.038 411.07 859.038 406.391C859.038 402.101 857.042 399.457 853.614 399.457C849.948 399.457 848.147 402.144 848.147 406.391C848.147 411.114 849.991 413.887 853.614 413.887Z" fill="#C35686"/>
</svg>
