<svg width="5932" height="1594" viewBox="0 0 5932 1594" fill="none" xmlns="http://www.w3.org/2000/svg">
<path d="M1306.66 704.988C1302.32 703.579 1298.86 701.404 1296.29 698.464C1293.73 695.447 1292.2 691.879 1291.69 687.759C1291.2 683.563 1291.77 678.955 1293.41 673.933L1305.46 636.842L1319.5 641.403L1308.41 675.527C1307.37 678.722 1306.97 681.622 1307.22 684.226C1307.49 686.754 1308.38 688.935 1309.89 690.771C1311.4 692.606 1313.48 693.956 1316.14 694.822C1318.12 695.464 1320.01 695.741 1321.81 695.652C1323.7 695.511 1325.44 695.067 1327.03 694.322C1328.64 693.5 1330.05 692.401 1331.26 691.026C1332.49 689.575 1333.41 687.898 1334.03 685.996L1345.74 649.932L1359.78 654.493L1340.24 714.638L1326.55 710.188L1330.4 697.56L1333.35 697.006C1331.5 699.601 1329.1 701.681 1326.15 703.246C1323.3 704.76 1320.17 705.72 1316.76 706.126C1313.37 706.455 1310.01 706.076 1306.66 704.988ZM1376.41 727.651C1371.08 725.921 1366.57 723.488 1362.88 720.354C1359.29 717.168 1356.71 713.469 1355.13 709.256L1366.82 704.348C1368.26 707.676 1370.21 710.369 1372.65 712.424C1375.09 714.48 1377.88 716.015 1381 717.029C1382.29 717.449 1383.48 717.668 1384.57 717.685C1385.73 717.727 1386.79 717.567 1387.75 717.205C1388.71 716.844 1389.5 716.344 1390.13 715.707C1390.86 715.019 1391.38 714.18 1391.71 713.191C1392.3 711.365 1392.08 709.696 1391.06 708.186C1390.47 707.406 1389.44 706.44 1387.97 705.288C1386.57 704.16 1384.67 702.871 1382.28 701.422C1378.52 699.022 1375.49 696.692 1373.2 694.433C1370.93 692.097 1369.32 689.807 1368.36 687.563C1367.54 685.697 1367.08 683.74 1366.99 681.691C1366.97 679.667 1367.31 677.59 1368.01 675.46C1368.87 672.797 1370.22 670.586 1372.05 668.826C1373.99 667.015 1376.24 665.645 1378.82 664.714C1381.39 663.784 1384.18 663.346 1387.19 663.399C1390.2 663.452 1393.19 663.96 1396.16 664.924C1399.2 665.913 1402.01 667.245 1404.58 668.921C1407.22 670.621 1409.52 672.59 1411.49 674.826C1413.56 677.012 1415.14 679.378 1416.25 681.925L1405.71 687.962C1404.71 686.123 1403.5 684.387 1402.1 682.753C1400.77 681.144 1399.33 679.751 1397.78 678.573C1396.25 677.32 1394.73 676.446 1393.21 675.952C1391.76 675.482 1390.42 675.214 1389.18 675.148C1387.96 675.005 1386.89 675.076 1385.95 675.362C1385.02 675.647 1384.19 676.134 1383.46 676.823C1382.83 677.46 1382.35 678.311 1382 679.376C1381.78 680.314 1381.72 681.263 1381.83 682.224C1382.04 683.133 1382.44 683.977 1383.03 684.757C1383.69 685.562 1384.75 686.578 1386.2 687.807C1387.65 689.036 1389.61 690.387 1392.08 691.861C1395.48 694.061 1398.24 696.178 1400.36 698.211C1402.47 700.244 1403.99 702.295 1404.92 704.362C1405.92 706.201 1406.43 708.133 1406.44 710.157C1406.46 712.18 1406.11 714.296 1405.39 716.502C1404.23 720.078 1402.17 722.94 1399.2 725.087C1396.3 727.26 1392.85 728.576 1388.83 729.037C1384.89 729.522 1380.75 729.06 1376.41 727.651ZM1439.9 748.282C1433.59 746.23 1428.43 743.082 1424.42 738.836C1420.5 734.616 1417.9 729.778 1416.65 724.323C1415.49 718.817 1415.88 713.096 1417.81 707.162C1419.34 702.444 1421.5 698.393 1424.28 695.007C1427.06 691.621 1430.24 688.953 1433.82 687.003C1437.5 685.002 1441.45 683.846 1445.67 683.536C1450 683.174 1454.4 683.723 1458.89 685.181C1462.85 686.467 1466.29 688.427 1469.22 691.061C1472.15 693.695 1474.44 696.751 1476.08 700.23C1477.75 703.633 1478.64 707.37 1478.75 711.443C1478.96 715.464 1478.33 719.592 1476.87 723.828L1475.16 728.698L1426.43 712.864L1426.92 702.425L1466.52 715.292L1464.06 716.639L1464.88 714.128C1465.42 711.696 1465.32 709.394 1464.6 707.224C1463.9 704.978 1462.68 703.026 1460.95 701.37C1459.32 699.662 1457.28 698.412 1454.85 697.621C1451.12 696.41 1447.73 696.107 1444.67 696.712C1441.69 697.342 1439.11 698.816 1436.93 701.135C1434.77 703.377 1433.03 706.515 1431.72 710.547C1430.46 714.428 1430.16 718.073 1430.82 721.483C1431.55 724.918 1433.15 727.917 1435.59 730.479C1438.14 732.989 1441.43 734.9 1445.47 736.21C1448.28 737.125 1451.02 737.509 1453.67 737.362C1456.33 737.215 1459.41 736.408 1462.91 734.939L1466.72 746.902C1464.05 748.137 1461.16 749.006 1458.05 749.51C1455.04 749.963 1451.97 750.1 1448.83 749.922C1445.7 749.743 1442.72 749.197 1439.9 748.282ZM1502.78 768.712C1497.45 766.981 1493.09 764.092 1489.7 760.045C1486.4 755.946 1484.25 751.168 1483.25 745.711C1482.35 740.203 1482.89 734.406 1484.87 728.319C1486.82 722.308 1489.78 717.34 1493.75 713.414C1497.71 709.487 1502.22 706.873 1507.27 705.569C1512.42 704.215 1517.66 704.403 1522.99 706.133C1525.88 707.073 1528.51 708.431 1530.87 710.21C1533.32 712.013 1535.34 714.059 1536.95 716.349C1538.59 718.563 1539.71 720.819 1540.31 723.116C1540.98 725.439 1541.06 727.652 1540.55 729.756L1536.63 728.988L1549.54 689.272L1563.57 693.833L1536.13 778.287L1522.55 773.874L1526.81 759.611L1529.47 760.73C1528.78 762.607 1527.5 764.211 1525.64 765.54C1523.85 766.895 1521.74 767.973 1519.29 768.776C1516.84 769.579 1514.14 770.004 1511.18 770.052C1508.32 770.049 1505.52 769.602 1502.78 768.712ZM1509.38 757.733C1512.65 758.796 1515.81 758.898 1518.87 758.04C1521.92 757.182 1524.6 755.53 1526.91 753.084C1529.3 750.662 1531.11 747.549 1532.34 743.745C1533.55 740.017 1533.91 736.472 1533.4 733.111C1532.99 729.699 1531.8 726.786 1529.8 724.373C1527.84 721.883 1525.22 720.107 1521.95 719.044C1518.67 717.981 1515.51 717.878 1512.46 718.736C1509.43 719.518 1506.71 721.158 1504.3 723.655C1501.99 726.102 1500.23 729.189 1499.02 732.917C1497.78 736.721 1497.38 740.291 1497.81 743.628C1498.31 746.989 1499.55 749.914 1501.52 752.404C1503.48 754.893 1506.1 756.67 1509.38 757.733ZM1618.46 806.297C1615.79 805.432 1613.29 804.198 1610.95 802.597C1608.71 800.944 1606.79 799.099 1605.18 797.062C1603.57 795.025 1602.35 792.948 1601.53 790.829C1600.73 788.634 1600.38 786.587 1600.49 784.689L1604.29 784.281L1599.27 798.549L1585.69 794.137L1613.06 709.911L1627.09 714.472L1614.67 752.705L1612.53 750.748C1613.51 749.045 1614.9 747.605 1616.71 746.428C1618.62 745.199 1620.78 744.259 1623.18 743.608C1625.6 742.882 1628.12 742.521 1630.72 742.526C1633.35 742.456 1635.89 742.816 1638.32 743.607C1643.72 745.362 1648.04 748.239 1651.29 752.237C1654.61 756.26 1656.68 761.013 1657.51 766.496C1658.41 772.005 1657.88 777.764 1655.93 783.775C1653.95 789.862 1651.02 794.88 1647.13 798.831C1643.23 802.782 1638.75 805.447 1633.68 806.827C1628.7 808.155 1623.63 807.978 1618.46 806.297ZM1619.49 793.007C1622.69 794.045 1625.8 794.174 1628.83 793.392C1631.89 792.534 1634.59 790.932 1636.95 788.586C1639.34 786.165 1641.14 783.09 1642.35 779.362C1643.54 775.71 1643.86 772.241 1643.33 768.957C1642.88 765.697 1641.65 762.86 1639.66 760.446C1637.67 758.033 1635.04 756.294 1631.77 755.231C1628.5 754.168 1625.34 754.028 1622.31 754.81C1619.29 755.592 1616.59 757.155 1614.23 759.501C1611.87 761.846 1610.1 764.845 1608.91 768.497C1607.7 772.225 1607.35 775.77 1607.85 779.131C1608.38 782.415 1609.63 785.303 1611.6 787.792C1613.59 790.206 1616.22 791.944 1619.49 793.007ZM1656.99 846.576L1679.38 821.17L1676.45 830.566L1668.28 754.731L1684.49 759.996L1688.28 804.633C1688.49 805.795 1688.59 807.3 1688.58 809.147C1688.59 810.917 1688.53 812.663 1688.39 814.385L1685.24 814.371C1686.25 813.098 1687.31 811.762 1688.44 810.362C1689.59 808.886 1690.72 807.359 1691.82 805.782L1718.73 771.121L1735.05 776.424L1690.4 828.411L1671.6 851.322L1656.99 846.576Z" fill="#165C7D"/>
<path d="M4334.17 828.548C4329.84 829.957 4325.76 830.23 4321.95 829.366C4318.11 828.426 4314.77 826.44 4311.94 823.408C4309.08 820.3 4306.83 816.235 4305.2 811.213L4293.15 774.122L4307.18 769.561L4318.27 803.685C4319.31 806.881 4320.7 809.459 4322.43 811.42C4324.13 813.305 4326.13 814.547 4328.43 815.147C4330.73 815.746 4333.21 815.613 4335.87 814.748C4337.85 814.105 4339.54 813.22 4340.94 812.092C4342.39 810.863 4343.54 809.481 4344.39 807.944C4345.21 806.331 4345.7 804.614 4345.87 802.794C4346.01 800.898 4345.77 798.998 4345.15 797.096L4333.43 761.032L4347.47 756.471L4367.01 816.616L4353.32 821.066L4349.01 808.586L4351.08 806.401C4351.1 809.589 4350.38 812.682 4348.92 815.682C4347.51 818.58 4345.54 821.196 4343.02 823.53C4340.47 825.788 4337.52 827.46 4334.17 828.548ZM4403.92 805.885C4398.6 807.615 4393.52 808.298 4388.69 807.932C4383.91 807.466 4379.65 805.992 4375.9 803.509L4382.47 792.668C4385.59 794.513 4388.75 795.549 4391.93 795.775C4395.12 796.002 4398.27 795.609 4401.39 794.595C4402.68 794.175 4403.78 793.652 4404.67 793.026C4405.63 792.376 4406.4 791.622 4406.96 790.766C4407.52 789.911 4407.87 789.04 4408.01 788.156C4408.19 787.171 4408.12 786.184 4407.8 785.194C4407.21 783.368 4406.05 782.145 4404.34 781.525C4403.4 781.24 4402 781.065 4400.13 781C4398.33 780.91 4396.04 780.981 4393.26 781.213C4388.8 781.483 4384.98 781.378 4381.8 780.899C4378.59 780.343 4375.94 779.437 4373.85 778.182C4372.09 777.157 4370.57 775.842 4369.29 774.239C4368.09 772.61 4367.14 770.731 4366.45 768.601C4365.58 765.938 4365.37 763.356 4365.82 760.854C4366.32 758.252 4367.34 755.819 4368.88 753.554C4370.41 751.288 4372.41 749.292 4374.88 747.565C4377.35 745.838 4380.07 744.493 4383.03 743.529C4386.08 742.54 4389.13 741.969 4392.19 741.815C4395.33 741.636 4398.35 741.874 4401.26 742.529C4404.21 743.082 4406.89 744.064 4409.28 745.474L4404.3 756.555C4402.41 755.655 4400.41 754.957 4398.32 754.46C4396.3 753.939 4394.31 753.658 4392.37 753.618C4390.39 753.502 4388.65 753.691 4387.13 754.185C4385.68 754.655 4384.44 755.228 4383.39 755.903C4382.33 756.502 4381.5 757.191 4380.91 757.971C4380.32 758.751 4379.94 759.633 4379.75 760.619C4379.62 761.503 4379.73 762.478 4380.07 763.543C4380.44 764.431 4380.96 765.232 4381.61 765.946C4382.31 766.558 4383.13 767.007 4384.07 767.292C4385.08 767.553 4386.53 767.754 4388.43 767.895C4390.32 768.036 4392.7 767.978 4395.56 767.721C4399.61 767.499 4403.09 767.589 4406 767.99C4408.9 768.392 4411.34 769.156 4413.3 770.285C4415.19 771.184 4416.74 772.448 4417.94 774.077C4419.14 775.705 4420.1 777.622 4420.82 779.829C4421.98 783.405 4421.99 786.934 4420.85 790.417C4419.79 793.874 4417.77 796.971 4414.79 799.706C4411.88 802.416 4408.26 804.476 4403.92 805.885ZM4467.42 785.254C4461.1 787.306 4455.08 787.792 4449.34 786.711C4443.69 785.605 4438.74 783.215 4434.52 779.54C4430.35 775.764 4427.3 770.909 4425.37 764.974C4423.84 760.257 4423.21 755.711 4423.47 751.336C4423.73 746.961 4424.73 742.934 4426.48 739.254C4428.28 735.472 4430.8 732.215 4434.03 729.482C4437.31 726.648 4441.2 724.502 4445.69 723.044C4449.65 721.758 4453.58 721.32 4457.5 721.729C4461.42 722.138 4465.07 723.267 4468.44 725.114C4471.8 726.885 4474.71 729.386 4477.19 732.618C4479.72 735.749 4481.64 739.457 4482.95 743.743L4484.43 748.687L4435.7 764.521L4429.96 755.787L4469.56 742.92L4468.37 745.453L4467.55 742.943C4466.56 740.658 4465.13 738.851 4463.27 737.522C4461.38 736.116 4459.25 735.252 4456.87 734.93C4454.55 734.508 4452.17 734.692 4449.73 735.483C4446 736.695 4443.08 738.443 4440.96 740.73C4438.92 742.991 4437.7 745.701 4437.3 748.861C4436.87 751.944 4437.31 755.502 4438.62 759.534C4439.88 763.415 4441.78 766.541 4444.32 768.913C4446.93 771.26 4449.98 772.751 4453.47 773.384C4457.01 773.917 4460.79 773.528 4464.82 772.218C4467.64 771.304 4470.08 770.006 4472.14 768.327C4474.2 766.648 4476.22 764.184 4478.19 760.935L4488.3 768.374C4486.87 770.944 4485.04 773.346 4482.82 775.58C4480.66 777.714 4478.25 779.632 4475.61 781.332C4472.96 783.032 4470.23 784.34 4467.42 785.254ZM4530.3 764.824C4524.97 766.555 4519.74 766.781 4514.62 765.502C4509.54 764.123 4505 761.52 4500.98 757.695C4497.01 753.769 4494.04 748.763 4492.06 742.676C4490.11 736.665 4489.58 730.906 4490.48 725.397C4491.39 719.889 4493.5 715.123 4496.82 711.101C4500.19 706.977 4504.53 704.05 4509.86 702.32C4512.75 701.381 4515.68 700.935 4518.64 700.982C4521.67 701.005 4524.51 701.47 4527.16 702.375C4529.79 703.205 4532.02 704.373 4533.85 705.879C4535.77 707.361 4537.13 709.105 4537.95 711.11L4534.33 712.79L4521.43 673.074L4535.47 668.513L4562.91 752.966L4549.33 757.379L4544.39 743.339L4547.2 742.677C4547.74 744.604 4547.65 746.652 4546.92 748.822C4546.28 750.968 4545.2 753.085 4543.69 755.173C4542.18 757.262 4540.24 759.195 4537.88 760.973C4535.56 762.651 4533.03 763.934 4530.3 764.824ZM4529.18 752.065C4532.45 751.002 4535.07 749.226 4537.04 746.736C4539 744.246 4540.2 741.334 4540.63 737.997C4541.14 734.636 4540.77 731.054 4539.54 727.25C4538.32 723.521 4536.53 720.447 4534.14 718.025C4531.81 715.503 4529.13 713.851 4526.1 713.069C4523.04 712.211 4519.88 712.313 4516.61 713.376C4513.34 714.439 4510.72 716.216 4508.75 718.705C4506.76 721.119 4505.52 724.044 4505.04 727.481C4504.61 730.817 4505 734.349 4506.21 738.078C4507.45 741.882 4509.22 745.007 4511.53 747.453C4513.91 749.875 4516.63 751.515 4519.69 752.373C4522.74 753.231 4525.91 753.128 4529.18 752.065ZM4645.97 727.239C4643.31 728.104 4640.56 728.577 4637.73 728.656C4634.94 728.635 4632.3 728.274 4629.8 727.572C4627.3 726.87 4625.1 725.904 4623.18 724.675C4621.25 723.37 4619.76 721.917 4618.74 720.315L4621.57 717.756L4625.9 732.248L4612.31 736.66L4584.95 652.435L4598.99 647.874L4611.41 686.106L4608.53 685.781C4608.31 683.831 4608.59 681.847 4609.37 679.829C4610.19 677.71 4611.39 675.683 4612.94 673.747C4614.48 671.734 4616.3 669.965 4618.41 668.437C4620.5 666.834 4622.76 665.637 4625.19 664.846C4630.6 663.091 4635.78 662.877 4640.76 664.205C4645.81 665.508 4650.28 668.135 4654.17 672.086C4658.14 676.012 4661.1 680.981 4663.05 686.992C4665.03 693.078 4665.6 698.864 4664.78 704.347C4663.95 709.831 4661.89 714.622 4658.6 718.721C4655.35 722.719 4651.14 725.558 4645.97 727.239ZM4639 715.878C4642.19 714.839 4644.79 713.113 4646.78 710.7C4648.75 708.21 4650 705.323 4650.53 702.038C4651.03 698.677 4650.68 695.132 4649.47 691.404C4648.28 687.752 4646.51 684.754 4644.15 682.408C4641.86 680.038 4639.21 678.462 4636.18 677.68C4633.15 676.898 4630 677.039 4626.72 678.102C4623.45 679.165 4620.82 680.903 4618.83 683.316C4616.84 685.73 4615.58 688.579 4615.05 691.864C4614.51 695.149 4614.84 698.617 4616.03 702.269C4617.24 705.998 4619.04 709.072 4621.42 711.494C4623.78 713.839 4626.49 715.441 4629.55 716.299C4632.58 717.081 4635.73 716.941 4639 715.878ZM4700.82 737.176L4704 703.464L4707.15 712.785L4655.97 656.233L4672.18 650.967L4701.48 684.85C4702.34 685.666 4703.3 686.825 4704.38 688.325C4705.43 689.75 4706.41 691.2 4707.31 692.674L4704.75 694.514C4704.81 692.895 4704.89 691.188 4704.98 689.393C4705.04 687.521 4705.06 685.624 4705.02 683.701L4706.42 639.843L4722.74 634.54L4717.17 702.843L4715.43 732.43L4700.82 737.176Z" fill="#165C7D"/>
<path d="M2715.58 829.61L2689.42 745.61H2705.74L2720.62 795.17C2721.1 796.69 2721.54 798.37 2721.94 800.21C2722.34 802.05 2722.7 803.89 2723.02 805.73C2723.34 807.49 2723.62 809.13 2723.86 810.65C2724.1 812.17 2724.34 813.45 2724.58 814.49L2721.34 814.37C2722.3 810.61 2723.06 807.57 2723.62 805.25C2724.18 802.93 2724.66 801.01 2725.06 799.49C2725.54 797.89 2726.02 796.41 2726.5 795.05L2740.66 758.81H2753.98L2767.78 795.05C2768.58 797.29 2769.3 799.45 2769.94 801.53C2770.58 803.53 2771.1 805.53 2771.5 807.53C2771.98 809.45 2772.42 811.45 2772.82 813.53L2769.94 814.13C2770.26 812.21 2770.5 810.65 2770.66 809.45C2770.82 808.25 2770.98 807.17 2771.14 806.21C2771.3 805.25 2771.46 804.33 2771.62 803.45C2771.78 802.49 2772.02 801.37 2772.34 800.09C2772.74 798.73 2773.22 797.01 2773.78 794.93L2788.54 745.61H2804.74L2778.46 829.61H2767.18L2745.82 778.49L2747.26 778.97L2726.98 829.61H2715.58ZM2817.12 829.61V766.37H2831.88V829.61H2817.12ZM2824.32 752.93C2821.36 752.93 2819.04 752.21 2817.36 750.77C2815.76 749.25 2814.96 747.13 2814.96 744.41C2814.96 741.85 2815.8 739.77 2817.48 738.17C2819.16 736.57 2821.44 735.77 2824.32 735.77C2827.36 735.77 2829.68 736.53 2831.28 738.05C2832.96 739.49 2833.8 741.61 2833.8 744.41C2833.8 746.89 2832.96 748.93 2831.28 750.53C2829.6 752.13 2827.28 752.93 2824.32 752.93ZM2850.71 829.61V740.81H2865.59V829.61H2850.71ZM2883.06 829.61V740.81H2897.94V829.61H2883.06ZM2952.23 829.61V766.37H2966.99V829.61H2952.23ZM2959.43 752.93C2956.47 752.93 2954.15 752.21 2952.47 750.77C2950.87 749.25 2950.07 747.13 2950.07 744.41C2950.07 741.85 2950.91 739.77 2952.59 738.17C2954.27 736.57 2956.55 735.77 2959.43 735.77C2962.47 735.77 2964.79 736.53 2966.39 738.05C2968.07 739.49 2968.91 741.61 2968.91 744.41C2968.91 746.89 2968.07 748.93 2966.39 750.53C2964.71 752.13 2962.39 752.93 2959.43 752.93ZM2985.71 829.61V766.37H3000.11L3000.35 779.33L2997.59 780.77C2998.39 777.89 2999.95 775.29 3002.27 772.97C3004.59 770.57 3007.35 768.65 3010.55 767.21C3013.75 765.77 3017.03 765.05 3020.39 765.05C3025.19 765.05 3029.19 766.01 3032.39 767.93C3035.67 769.85 3038.11 772.73 3039.71 776.57C3041.39 780.41 3042.23 785.21 3042.23 790.97V829.61H3027.47V792.05C3027.47 788.85 3027.03 786.21 3026.15 784.13C3025.27 781.97 3023.91 780.41 3022.07 779.45C3020.23 778.41 3017.99 777.93 3015.35 778.01C3013.19 778.01 3011.19 778.37 3009.35 779.09C3007.59 779.73 3006.03 780.69 3004.67 781.97C3003.39 783.17 3002.35 784.57 3001.55 786.17C3000.83 787.77 3000.47 789.53 3000.47 791.45V829.61H2993.15C2991.71 829.61 2990.35 829.61 2989.07 829.61C2987.87 829.61 2986.75 829.61 2985.71 829.61ZM3064.6 829.61V760.73C3064.6 756.89 3065.44 753.49 3067.12 750.53C3068.8 747.49 3071.12 745.13 3074.08 743.45C3077.04 741.69 3080.48 740.81 3084.4 740.81C3087.12 740.81 3089.64 741.29 3091.96 742.25C3094.28 743.13 3096.24 744.37 3097.84 745.97L3093.28 757.13C3092.24 756.25 3091.12 755.57 3089.92 755.09C3088.8 754.61 3087.72 754.37 3086.68 754.37C3085.08 754.37 3083.72 754.65 3082.6 755.21C3081.56 755.69 3080.76 756.45 3080.2 757.49C3079.72 758.53 3079.48 759.77 3079.48 761.21V829.61H3072.04C3070.6 829.61 3069.24 829.61 3067.96 829.61C3066.76 829.61 3065.64 829.61 3064.6 829.61ZM3054.76 780.65V767.69H3093.76V780.65H3054.76ZM3132.52 830.81C3126.2 830.81 3120.56 829.41 3115.6 826.61C3110.64 823.73 3106.72 819.81 3103.84 814.85C3100.96 809.89 3099.52 804.25 3099.52 797.93C3099.52 791.61 3100.96 785.97 3103.84 781.01C3106.72 776.05 3110.64 772.17 3115.6 769.37C3120.56 766.49 3126.2 765.05 3132.52 765.05C3138.76 765.05 3144.36 766.49 3149.32 769.37C3154.28 772.17 3158.16 776.05 3160.96 781.01C3163.84 785.97 3165.28 791.61 3165.28 797.93C3165.28 804.25 3163.84 809.89 3160.96 814.85C3158.16 819.81 3154.28 823.73 3149.32 826.61C3144.36 829.41 3138.76 830.81 3132.52 830.81ZM3132.52 817.73C3135.96 817.73 3139 816.85 3141.64 815.09C3144.36 813.33 3146.48 810.97 3148 808.01C3149.6 805.05 3150.36 801.69 3150.28 797.93C3150.36 794.09 3149.6 790.69 3148 787.73C3146.48 784.77 3144.36 782.45 3141.64 780.77C3139 779.01 3135.96 778.13 3132.52 778.13C3129.08 778.13 3125.96 779.01 3123.16 780.77C3120.44 782.45 3118.32 784.81 3116.8 787.85C3115.28 790.81 3114.52 794.17 3114.52 797.93C3114.52 801.69 3115.28 805.05 3116.8 808.01C3118.32 810.97 3120.44 813.33 3123.16 815.09C3125.96 816.85 3129.08 817.73 3132.52 817.73ZM3178.48 829.61V766.37H3193L3193.24 786.53L3191.2 781.97C3192.08 778.77 3193.6 775.89 3195.76 773.33C3197.92 770.77 3200.4 768.77 3203.2 767.33C3206.08 765.81 3209.08 765.05 3212.2 765.05C3213.56 765.05 3214.84 765.17 3216.04 765.41C3217.32 765.65 3218.36 765.93 3219.16 766.25L3215.2 782.45C3214.32 781.97 3213.24 781.57 3211.96 781.25C3210.68 780.93 3209.4 780.77 3208.12 780.77C3206.12 780.77 3204.2 781.17 3202.36 781.97C3200.6 782.69 3199.04 783.73 3197.68 785.09C3196.32 786.45 3195.24 788.05 3194.44 789.89C3193.72 791.65 3193.36 793.65 3193.36 795.89V829.61H3178.48ZM3228.75 829.61V766.37H3243.27L3243.51 779.09L3241.11 780.05C3241.83 777.97 3242.91 776.05 3244.35 774.29C3245.79 772.45 3247.51 770.89 3249.51 769.61C3251.51 768.25 3253.63 767.21 3255.87 766.49C3258.11 765.69 3260.39 765.29 3262.71 765.29C3266.15 765.29 3269.19 765.85 3271.83 766.97C3274.55 768.01 3276.79 769.69 3278.55 772.01C3280.39 774.33 3281.75 777.29 3282.63 780.89L3280.35 780.41L3281.31 778.49C3282.19 776.57 3283.43 774.85 3285.03 773.33C3286.63 771.73 3288.43 770.33 3290.43 769.13C3292.43 767.85 3294.51 766.89 3296.67 766.25C3298.91 765.61 3301.11 765.29 3303.27 765.29C3308.07 765.29 3312.07 766.25 3315.27 768.17C3318.47 770.09 3320.87 773.01 3322.47 776.93C3324.07 780.85 3324.87 785.69 3324.87 791.45V829.61H3309.99V792.41C3309.99 789.21 3309.55 786.57 3308.67 784.49C3307.87 782.41 3306.59 780.89 3304.83 779.93C3303.15 778.89 3301.03 778.37 3298.47 778.37C3296.47 778.37 3294.55 778.73 3292.71 779.45C3290.95 780.09 3289.43 781.05 3288.15 782.33C3286.87 783.53 3285.87 784.93 3285.15 786.53C3284.43 788.13 3284.07 789.89 3284.07 791.81V829.61H3269.19V792.29C3269.19 789.25 3268.75 786.73 3267.87 784.73C3266.99 782.65 3265.71 781.09 3264.03 780.05C3262.35 778.93 3260.31 778.37 3257.91 778.37C3255.91 778.37 3254.03 778.73 3252.27 779.45C3250.51 780.09 3248.99 781.01 3247.71 782.21C3246.43 783.41 3245.43 784.81 3244.71 786.41C3243.99 788.01 3243.63 789.77 3243.63 791.69V829.61H3228.75Z" fill="#165C7D"/>
<path d="M4048.15 95.2C4045.35 95.2 4042.59 94.8 4039.87 94C4037.23 93.12 4034.83 91.96 4032.67 90.52C4030.51 89.08 4028.71 87.48 4027.27 85.72C4025.83 83.88 4024.87 82.04 4024.39 80.2L4027.87 78.64L4027.51 93.76H4013.23V5.2H4027.99V45.4L4025.35 44.2C4025.75 42.28 4026.63 40.48 4027.99 38.8C4029.43 37.04 4031.19 35.48 4033.27 34.12C4035.35 32.68 4037.63 31.56 4040.11 30.76C4042.59 29.88 4045.11 29.44 4047.67 29.44C4053.35 29.44 4058.35 30.84 4062.67 33.64C4067.07 36.44 4070.51 40.32 4072.99 45.28C4075.55 50.24 4076.83 55.88 4076.83 62.2C4076.83 68.6 4075.59 74.28 4073.11 79.24C4070.63 84.2 4067.19 88.12 4062.79 91C4058.47 93.8 4053.59 95.2 4048.15 95.2ZM4045.03 82.24C4048.39 82.24 4051.39 81.4 4054.03 79.72C4056.67 77.96 4058.75 75.6 4060.27 72.64C4061.79 69.6 4062.55 66.12 4062.55 62.2C4062.55 58.36 4061.79 54.96 4060.27 52C4058.83 49.04 4056.79 46.72 4054.15 45.04C4051.51 43.36 4048.47 42.52 4045.03 42.52C4041.59 42.52 4038.55 43.36 4035.91 45.04C4033.27 46.72 4031.19 49.04 4029.67 52C4028.15 54.96 4027.39 58.36 4027.39 62.2C4027.39 66.12 4028.15 69.6 4029.67 72.64C4031.19 75.6 4033.27 77.96 4035.91 79.72C4038.55 81.4 4041.59 82.24 4045.03 82.24ZM4113.87 95.2C4108.67 95.2 4103.95 93.76 4099.71 90.88C4095.47 88 4092.07 84.08 4089.51 79.12C4086.95 74.16 4085.67 68.52 4085.67 62.2C4085.67 55.88 4086.95 50.24 4089.51 45.28C4092.07 40.32 4095.55 36.44 4099.95 33.64C4104.35 30.84 4109.31 29.44 4114.83 29.44C4118.03 29.44 4120.95 29.92 4123.59 30.88C4126.23 31.76 4128.55 33.04 4130.55 34.72C4132.55 36.4 4134.19 38.32 4135.47 40.48C4136.83 42.64 4137.75 44.96 4138.23 47.44L4134.99 46.6V30.76H4149.87V94H4134.87V78.88L4138.35 78.28C4137.79 80.44 4136.75 82.56 4135.23 84.64C4133.79 86.64 4131.95 88.44 4129.71 90.04C4127.55 91.56 4125.11 92.8 4122.39 93.76C4119.75 94.72 4116.91 95.2 4113.87 95.2ZM4117.95 82.12C4121.39 82.12 4124.43 81.28 4127.07 79.6C4129.71 77.92 4131.75 75.6 4133.19 72.64C4134.71 69.6 4135.47 66.12 4135.47 62.2C4135.47 58.36 4134.71 54.96 4133.19 52C4131.75 49.04 4129.71 46.72 4127.07 45.04C4124.43 43.36 4121.39 42.52 4117.95 42.52C4114.51 42.52 4111.47 43.36 4108.83 45.04C4106.27 46.72 4104.27 49.04 4102.83 52C4101.39 54.96 4100.67 58.36 4100.67 62.2C4100.67 66.12 4101.39 69.6 4102.83 72.64C4104.27 75.6 4106.27 77.92 4108.83 79.6C4111.47 81.28 4114.51 82.12 4117.95 82.12ZM4188.1 95.2C4182.5 95.2 4177.46 94.28 4172.98 92.44C4168.58 90.52 4164.98 87.8 4162.18 84.28L4171.78 76C4174.18 78.72 4176.86 80.68 4179.82 81.88C4182.78 83.08 4185.9 83.68 4189.18 83.68C4190.54 83.68 4191.74 83.52 4192.78 83.2C4193.9 82.88 4194.86 82.4 4195.66 81.76C4196.46 81.12 4197.06 80.4 4197.46 79.6C4197.94 78.72 4198.18 77.76 4198.18 76.72C4198.18 74.8 4197.46 73.28 4196.02 72.16C4195.22 71.6 4193.94 71 4192.18 70.36C4190.5 69.72 4188.3 69.08 4185.58 68.44C4181.26 67.32 4177.66 66.04 4174.78 64.6C4171.9 63.08 4169.66 61.4 4168.06 59.56C4166.7 58.04 4165.66 56.32 4164.94 54.4C4164.3 52.48 4163.98 50.4 4163.98 48.16C4163.98 45.36 4164.58 42.84 4165.78 40.6C4167.06 38.28 4168.78 36.28 4170.94 34.6C4173.1 32.92 4175.62 31.64 4178.5 30.76C4181.38 29.88 4184.38 29.44 4187.5 29.44C4190.7 29.44 4193.78 29.84 4196.74 30.64C4199.78 31.44 4202.58 32.6 4205.14 34.12C4207.78 35.56 4210.02 37.32 4211.86 39.4L4203.7 48.4C4202.18 46.96 4200.5 45.68 4198.66 44.56C4196.9 43.44 4195.1 42.56 4193.26 41.92C4191.42 41.2 4189.7 40.84 4188.1 40.84C4186.58 40.84 4185.22 41 4184.02 41.32C4182.82 41.56 4181.82 41.96 4181.02 42.52C4180.22 43.08 4179.58 43.8 4179.1 44.68C4178.7 45.48 4178.5 46.44 4178.5 47.56C4178.58 48.52 4178.82 49.44 4179.22 50.32C4179.7 51.12 4180.34 51.8 4181.14 52.36C4182.02 52.92 4183.34 53.56 4185.1 54.28C4186.86 55 4189.14 55.68 4191.94 56.32C4195.86 57.36 4199.14 58.52 4201.78 59.8C4204.42 61.08 4206.5 62.56 4208.02 64.24C4209.54 65.68 4210.62 67.36 4211.26 69.28C4211.9 71.2 4212.22 73.32 4212.22 75.64C4212.22 79.4 4211.14 82.76 4208.98 85.72C4206.9 88.68 4204.02 91 4200.34 92.68C4196.74 94.36 4192.66 95.2 4188.1 95.2ZM4226.9 94V30.76H4241.66V94H4226.9ZM4234.1 17.32C4231.14 17.32 4228.82 16.6 4227.14 15.16C4225.54 13.64 4224.74 11.52 4224.74 8.8C4224.74 6.24 4225.58 4.16 4227.26 2.56C4228.94 0.959994 4231.22 0.159992 4234.1 0.159992C4237.14 0.159992 4239.46 0.919994 4241.06 2.44C4242.74 3.87999 4243.58 5.99999 4243.58 8.8C4243.58 11.28 4242.74 13.32 4241.06 14.92C4239.38 16.52 4237.06 17.32 4234.1 17.32ZM4281.5 95.2C4275.9 95.2 4270.86 94.28 4266.38 92.44C4261.98 90.52 4258.38 87.8 4255.58 84.28L4265.18 76C4267.58 78.72 4270.26 80.68 4273.22 81.88C4276.18 83.08 4279.3 83.68 4282.58 83.68C4283.94 83.68 4285.14 83.52 4286.18 83.2C4287.3 82.88 4288.26 82.4 4289.06 81.76C4289.86 81.12 4290.46 80.4 4290.86 79.6C4291.34 78.72 4291.58 77.76 4291.58 76.72C4291.58 74.8 4290.86 73.28 4289.42 72.16C4288.62 71.6 4287.34 71 4285.58 70.36C4283.9 69.72 4281.7 69.08 4278.98 68.44C4274.66 67.32 4271.06 66.04 4268.18 64.6C4265.3 63.08 4263.06 61.4 4261.46 59.56C4260.1 58.04 4259.06 56.32 4258.34 54.4C4257.7 52.48 4257.38 50.4 4257.38 48.16C4257.38 45.36 4257.98 42.84 4259.18 40.6C4260.46 38.28 4262.18 36.28 4264.34 34.6C4266.5 32.92 4269.02 31.64 4271.9 30.76C4274.78 29.88 4277.78 29.44 4280.9 29.44C4284.1 29.44 4287.18 29.84 4290.14 30.64C4293.18 31.44 4295.98 32.6 4298.54 34.12C4301.18 35.56 4303.42 37.32 4305.26 39.4L4297.1 48.4C4295.58 46.96 4293.9 45.68 4292.06 44.56C4290.3 43.44 4288.5 42.56 4286.66 41.92C4284.82 41.2 4283.1 40.84 4281.5 40.84C4279.98 40.84 4278.62 41 4277.42 41.32C4276.22 41.56 4275.22 41.96 4274.42 42.52C4273.62 43.08 4272.98 43.8 4272.5 44.68C4272.1 45.48 4271.9 46.44 4271.9 47.56C4271.98 48.52 4272.22 49.44 4272.62 50.32C4273.1 51.12 4273.74 51.8 4274.54 52.36C4275.42 52.92 4276.74 53.56 4278.5 54.28C4280.26 55 4282.54 55.68 4285.34 56.32C4289.26 57.36 4292.54 58.52 4295.18 59.8C4297.82 61.08 4299.9 62.56 4301.42 64.24C4302.94 65.68 4304.02 67.36 4304.66 69.28C4305.3 71.2 4305.62 73.32 4305.62 75.64C4305.62 79.4 4304.54 82.76 4302.38 85.72C4300.3 88.68 4297.42 91 4293.74 92.68C4290.14 94.36 4286.06 95.2 4281.5 95.2ZM4359.65 94V25.12C4359.65 21.28 4360.49 17.88 4362.17 14.92C4363.85 11.88 4366.17 9.52 4369.13 7.83999C4372.09 6.08 4375.53 5.2 4379.45 5.2C4382.17 5.2 4384.69 5.68 4387.01 6.63999C4389.33 7.52 4391.29 8.76 4392.89 10.36L4388.33 21.52C4387.29 20.64 4386.17 19.96 4384.97 19.48C4383.85 19 4382.77 18.76 4381.73 18.76C4380.13 18.76 4378.77 19.04 4377.65 19.6C4376.61 20.08 4375.81 20.84 4375.25 21.88C4374.77 22.92 4374.53 24.16 4374.53 25.6V94H4367.09C4365.65 94 4364.29 94 4363.01 94C4361.81 94 4360.69 94 4359.65 94ZM4349.81 45.04V32.08H4388.81V45.04H4349.81ZM4427.58 95.2C4421.26 95.2 4415.62 93.8 4410.66 91C4405.7 88.12 4401.78 84.2 4398.9 79.24C4396.02 74.28 4394.58 68.64 4394.58 62.32C4394.58 56 4396.02 50.36 4398.9 45.4C4401.78 40.44 4405.7 36.56 4410.66 33.76C4415.62 30.88 4421.26 29.44 4427.58 29.44C4433.82 29.44 4439.42 30.88 4444.38 33.76C4449.34 36.56 4453.22 40.44 4456.02 45.4C4458.9 50.36 4460.34 56 4460.34 62.32C4460.34 68.64 4458.9 74.28 4456.02 79.24C4453.22 84.2 4449.34 88.12 4444.38 91C4439.42 93.8 4433.82 95.2 4427.58 95.2ZM4427.58 82.12C4431.02 82.12 4434.06 81.24 4436.7 79.48C4439.42 77.72 4441.54 75.36 4443.06 72.4C4444.66 69.44 4445.42 66.08 4445.34 62.32C4445.42 58.48 4444.66 55.08 4443.06 52.12C4441.54 49.16 4439.42 46.84 4436.7 45.16C4434.06 43.4 4431.02 42.52 4427.58 42.52C4424.14 42.52 4421.02 43.4 4418.22 45.16C4415.5 46.84 4413.38 49.2 4411.86 52.24C4410.34 55.2 4409.58 58.56 4409.58 62.32C4409.58 66.08 4410.34 69.44 4411.86 72.4C4413.38 75.36 4415.5 77.72 4418.22 79.48C4421.02 81.24 4424.14 82.12 4427.58 82.12ZM4473.54 94V30.76H4488.06L4488.3 50.92L4486.26 46.36C4487.14 43.16 4488.66 40.28 4490.82 37.72C4492.98 35.16 4495.46 33.16 4498.26 31.72C4501.14 30.2 4504.14 29.44 4507.26 29.44C4508.62 29.44 4509.9 29.56 4511.1 29.8C4512.38 30.04 4513.42 30.32 4514.22 30.64L4510.26 46.84C4509.38 46.36 4508.3 45.96 4507.02 45.64C4505.74 45.32 4504.46 45.16 4503.18 45.16C4501.18 45.16 4499.26 45.56 4497.42 46.36C4495.66 47.08 4494.1 48.12 4492.74 49.48C4491.38 50.84 4490.3 52.44 4489.5 54.28C4488.78 56.04 4488.42 58.04 4488.42 60.28V94H4473.54Z" fill="#165C7D"/>
<path d="M0.742188 219V200.8L78.9422 96.4L85.1422 103.4H5.94219V79H108.942V97L31.1422 201.6L24.7422 195H111.142V219H0.742188ZM172.359 221C164.759 221 158.159 219.333 152.559 216C146.959 212.533 142.693 207.667 139.759 201.4C136.826 195 135.359 187.4 135.359 178.6V113.6H159.959V173.4C159.959 179 160.826 183.8 162.559 187.8C164.293 191.667 166.826 194.667 170.159 196.8C173.493 198.933 177.493 200 182.159 200C185.626 200 188.759 199.467 191.559 198.4C194.493 197.2 197.026 195.6 199.159 193.6C201.293 191.467 202.959 189 204.159 186.2C205.359 183.267 205.959 180.133 205.959 176.8V113.6H230.559V219H206.559L206.159 197L210.559 194.6C208.959 199.667 206.226 204.2 202.359 208.2C198.626 212.067 194.159 215.2 188.959 217.6C183.759 219.867 178.226 221 172.359 221ZM259.392 219V113.6H283.592L283.992 147.2L280.592 139.6C282.059 134.267 284.592 129.467 288.192 125.2C291.792 120.933 295.926 117.6 300.592 115.2C305.392 112.667 310.392 111.4 315.592 111.4C317.859 111.4 319.992 111.6 321.992 112C324.126 112.4 325.859 112.867 327.192 113.4L320.592 140.4C319.126 139.6 317.326 138.933 315.192 138.4C313.059 137.867 310.926 137.6 308.792 137.6C305.459 137.6 302.259 138.267 299.192 139.6C296.259 140.8 293.659 142.533 291.392 144.8C289.126 147.067 287.326 149.733 285.992 152.8C284.792 155.733 284.192 159.067 284.192 162.8V219H259.392ZM343.572 219V113.6H367.572L367.972 135.2L363.372 137.6C364.705 132.8 367.305 128.467 371.172 124.6C375.039 120.6 379.639 117.4 384.972 115C390.305 112.6 395.772 111.4 401.372 111.4C409.372 111.4 416.039 113 421.372 116.2C426.839 119.4 430.905 124.2 433.572 130.6C436.372 137 437.772 145 437.772 154.6V219H413.172V156.4C413.172 151.067 412.439 146.667 410.972 143.2C409.505 139.6 407.239 137 404.172 135.4C401.105 133.667 397.372 132.867 392.972 133C389.372 133 386.039 133.6 382.972 134.8C380.039 135.867 377.439 137.467 375.172 139.6C373.039 141.6 371.305 143.933 369.972 146.6C368.772 149.267 368.172 152.2 368.172 155.4V219H355.972C353.572 219 351.305 219 349.172 219C347.172 219 345.305 219 343.572 219ZM463.647 127.2L455.447 117.4C460.78 115 465.114 112.2 468.447 109C471.78 105.667 473.447 102.867 473.447 100.6C473.447 99 472.78 97.5333 471.447 96.2C470.247 94.7333 468.914 93.4667 467.447 92.4C464.38 90 462.314 87.9333 461.247 86.2C460.18 84.4667 459.647 82.5333 459.647 80.4C459.647 76.9333 460.914 74.1333 463.447 72C466.114 69.8667 469.447 68.8 473.447 68.8C477.18 68.8 480.58 69.8 483.647 71.8C486.847 73.8 489.314 76.5333 491.047 80C492.78 83.4667 493.647 87.6 493.647 92.4C493.647 96.1333 492.914 99.8 491.447 103.4C489.98 107 487.847 110.4 485.047 113.6C482.38 116.667 479.18 119.4 475.447 121.8C471.847 124.2 467.914 126 463.647 127.2ZM551.233 221C541.899 221 533.499 219.467 526.033 216.4C518.699 213.2 512.699 208.667 508.033 202.8L524.033 189C528.033 193.533 532.499 196.8 537.433 198.8C542.366 200.8 547.566 201.8 553.033 201.8C555.299 201.8 557.299 201.533 559.033 201C560.899 200.467 562.499 199.667 563.833 198.6C565.166 197.533 566.166 196.333 566.833 195C567.633 193.533 568.033 191.933 568.033 190.2C568.033 187 566.833 184.467 564.433 182.6C563.099 181.667 560.966 180.667 558.033 179.6C555.233 178.533 551.566 177.467 547.033 176.4C539.833 174.533 533.833 172.4 529.033 170C524.233 167.467 520.499 164.667 517.833 161.6C515.566 159.067 513.833 156.2 512.633 153C511.566 149.8 511.033 146.333 511.033 142.6C511.033 137.933 512.033 133.733 514.033 130C516.166 126.133 519.033 122.8 522.633 120C526.233 117.2 530.433 115.067 535.233 113.6C540.033 112.133 545.033 111.4 550.233 111.4C555.566 111.4 560.699 112.067 565.633 113.4C570.699 114.733 575.366 116.667 579.633 119.2C584.033 121.6 587.766 124.533 590.833 128L577.233 143C574.699 140.6 571.899 138.467 568.833 136.6C565.899 134.733 562.899 133.267 559.833 132.2C556.766 131 553.899 130.4 551.233 130.4C548.699 130.4 546.433 130.667 544.433 131.2C542.433 131.6 540.766 132.267 539.433 133.2C538.099 134.133 537.033 135.333 536.233 136.8C535.566 138.133 535.233 139.733 535.233 141.6C535.366 143.2 535.766 144.733 536.433 146.2C537.233 147.533 538.299 148.667 539.633 149.6C541.099 150.533 543.299 151.6 546.233 152.8C549.166 154 552.966 155.133 557.633 156.2C564.166 157.933 569.633 159.867 574.033 162C578.433 164.133 581.899 166.6 584.433 169.4C586.966 171.8 588.766 174.6 589.833 177.8C590.899 181 591.433 184.533 591.433 188.4C591.433 194.667 589.633 200.267 586.033 205.2C582.566 210.133 577.766 214 571.633 216.8C565.633 219.6 558.833 221 551.233 221ZM720.692 221C712.559 221 705.092 220 698.292 218C691.492 215.867 685.359 212.733 679.892 208.6C674.426 204.467 669.559 199.467 665.292 193.6L682.292 174.4C688.826 183.467 695.226 189.733 701.492 193.2C707.759 196.667 714.826 198.4 722.692 198.4C727.226 198.4 731.359 197.733 735.092 196.4C738.826 194.933 741.759 193 743.892 190.6C746.026 188.067 747.092 185.2 747.092 182C747.092 179.733 746.626 177.667 745.692 175.8C744.892 173.8 743.626 172.067 741.892 170.6C740.159 169 738.026 167.533 735.492 166.2C732.959 164.867 730.092 163.733 726.892 162.8C723.692 161.867 720.159 161 716.292 160.2C708.959 158.733 702.559 156.8 697.092 154.4C691.626 151.867 687.026 148.8 683.292 145.2C679.559 141.467 676.826 137.333 675.092 132.8C673.359 128.133 672.492 122.867 672.492 117C672.492 111.133 673.759 105.733 676.292 100.8C678.959 95.8667 682.559 91.6 687.092 88C691.626 84.4 696.892 81.6 702.892 79.6C708.892 77.6 715.359 76.6 722.292 76.6C730.159 76.6 737.159 77.5333 743.292 79.4C749.559 81.2667 755.026 84.0667 759.692 87.8C764.492 91.4 768.426 95.8 771.492 101L754.292 118C751.626 113.867 748.626 110.467 745.292 107.8C741.959 105 738.359 102.933 734.492 101.6C730.626 100.133 726.559 99.4 722.292 99.4C717.492 99.4 713.292 100.067 709.692 101.4C706.226 102.733 703.492 104.667 701.492 107.2C699.492 109.6 698.492 112.533 698.492 116C698.492 118.667 699.092 121.067 700.292 123.2C701.492 125.2 703.159 127 705.292 128.6C707.559 130.2 710.426 131.6 713.892 132.8C717.359 134 721.292 135.067 725.692 136C733.026 137.467 739.626 139.467 745.492 142C751.359 144.4 756.359 147.333 760.492 150.8C764.626 154.133 767.759 158 769.892 162.4C772.026 166.667 773.092 171.467 773.092 176.8C773.092 186 770.892 193.933 766.492 200.6C762.226 207.133 756.159 212.2 748.292 215.8C740.426 219.267 731.226 221 720.692 221ZM845.483 221C834.949 221 825.549 218.667 817.283 214C809.016 209.2 802.483 202.667 797.683 194.4C792.883 186.133 790.483 176.733 790.483 166.2C790.483 155.667 792.883 146.267 797.683 138C802.483 129.733 809.016 123.267 817.283 118.6C825.549 113.8 834.949 111.4 845.483 111.4C855.883 111.4 865.216 113.8 873.483 118.6C881.749 123.267 888.216 129.733 892.883 138C897.683 146.267 900.083 155.667 900.083 166.2C900.083 176.733 897.683 186.133 892.883 194.4C888.216 202.667 881.749 209.2 873.483 214C865.216 218.667 855.883 221 845.483 221ZM845.483 199.2C851.216 199.2 856.283 197.733 860.683 194.8C865.216 191.867 868.749 187.933 871.283 183C873.949 178.067 875.216 172.467 875.083 166.2C875.216 159.8 873.949 154.133 871.283 149.2C868.749 144.267 865.216 140.4 860.683 137.6C856.283 134.667 851.216 133.2 845.483 133.2C839.749 133.2 834.549 134.667 829.883 137.6C825.349 140.4 821.816 144.333 819.283 149.4C816.749 154.333 815.483 159.933 815.483 166.2C815.483 172.467 816.749 178.067 819.283 183C821.816 187.933 825.349 191.867 829.883 194.8C834.549 197.733 839.749 199.2 845.483 199.2ZM922.288 219V71H947.088V219H922.288ZM1011.62 221C1004.02 221 997.417 219.333 991.817 216C986.217 212.533 981.951 207.667 979.017 201.4C976.084 195 974.617 187.4 974.617 178.6V113.6H999.217V173.4C999.217 179 1000.08 183.8 1001.82 187.8C1003.55 191.667 1006.08 194.667 1009.42 196.8C1012.75 198.933 1016.75 200 1021.42 200C1024.88 200 1028.02 199.467 1030.82 198.4C1033.75 197.2 1036.28 195.6 1038.42 193.6C1040.55 191.467 1042.22 189 1043.42 186.2C1044.62 183.267 1045.22 180.133 1045.22 176.8V113.6H1069.82V219H1045.82L1045.42 197L1049.82 194.6C1048.22 199.667 1045.48 204.2 1041.62 208.2C1037.88 212.067 1033.42 215.2 1028.22 217.6C1023.02 219.867 1017.48 221 1011.62 221ZM1110.05 219V86.8H1134.65V219H1110.05ZM1089.25 136.4V113.6H1157.65V136.4H1089.25ZM1179.18 219V113.6H1203.78V219H1179.18ZM1191.18 91.2C1186.25 91.2 1182.38 90 1179.58 87.6C1176.92 85.0667 1175.58 81.5333 1175.58 77C1175.58 72.7333 1176.98 69.2667 1179.78 66.6C1182.58 63.9333 1186.38 62.6 1191.18 62.6C1196.25 62.6 1200.12 63.8667 1202.78 66.4C1205.58 68.8 1206.98 72.3333 1206.98 77C1206.98 81.1333 1205.58 84.5333 1202.78 87.2C1199.98 89.8667 1196.12 91.2 1191.18 91.2ZM1283.18 221C1272.64 221 1263.24 218.667 1254.98 214C1246.71 209.2 1240.18 202.667 1235.38 194.4C1230.58 186.133 1228.18 176.733 1228.18 166.2C1228.18 155.667 1230.58 146.267 1235.38 138C1240.18 129.733 1246.71 123.267 1254.98 118.6C1263.24 113.8 1272.64 111.4 1283.18 111.4C1293.58 111.4 1302.91 113.8 1311.18 118.6C1319.44 123.267 1325.91 129.733 1330.58 138C1335.38 146.267 1337.78 155.667 1337.78 166.2C1337.78 176.733 1335.38 186.133 1330.58 194.4C1325.91 202.667 1319.44 209.2 1311.18 214C1302.91 218.667 1293.58 221 1283.18 221ZM1283.18 199.2C1288.91 199.2 1293.98 197.733 1298.38 194.8C1302.91 191.867 1306.44 187.933 1308.98 183C1311.64 178.067 1312.91 172.467 1312.78 166.2C1312.91 159.8 1311.64 154.133 1308.98 149.2C1306.44 144.267 1302.91 140.4 1298.38 137.6C1293.98 134.667 1288.91 133.2 1283.18 133.2C1277.44 133.2 1272.24 134.667 1267.58 137.6C1263.04 140.4 1259.51 144.333 1256.98 149.4C1254.44 154.333 1253.18 159.933 1253.18 166.2C1253.18 172.467 1254.44 178.067 1256.98 183C1259.51 187.933 1263.04 191.867 1267.58 194.8C1272.24 197.733 1277.44 199.2 1283.18 199.2ZM1359.78 219V113.6H1383.78L1384.18 135.2L1379.58 137.6C1380.92 132.8 1383.52 128.467 1387.38 124.6C1391.25 120.6 1395.85 117.4 1401.18 115C1406.52 112.6 1411.98 111.4 1417.58 111.4C1425.58 111.4 1432.25 113 1437.58 116.2C1443.05 119.4 1447.12 124.2 1449.78 130.6C1452.58 137 1453.98 145 1453.98 154.6V219H1429.38V156.4C1429.38 151.067 1428.65 146.667 1427.18 143.2C1425.72 139.6 1423.45 137 1420.38 135.4C1417.32 133.667 1413.58 132.867 1409.18 133C1405.58 133 1402.25 133.6 1399.18 134.8C1396.25 135.867 1393.65 137.467 1391.38 139.6C1389.25 141.6 1387.52 143.933 1386.18 146.6C1384.98 149.267 1384.38 152.2 1384.38 155.4V219H1372.18C1369.78 219 1367.52 219 1365.38 219C1363.38 219 1361.52 219 1359.78 219Z" fill="#165C7D"/>
<path d="M2344.17 219V200.8L2422.37 96.4L2428.57 103.4H2349.37V79H2452.37V97L2374.57 201.6L2368.17 195H2454.57V219H2344.17ZM2484.56 219V79H2576.16V102.6H2510.16V195.4H2576.96V219H2484.56ZM2496.56 159V135.8H2565.96V159H2496.56ZM2668.35 219V79H2729.15C2737.55 79 2745.22 81 2752.15 85C2759.08 88.8667 2764.55 94.2 2768.55 101C2772.68 107.667 2774.75 115.2 2774.75 123.6C2774.75 131.6 2772.68 139 2768.55 145.8C2764.55 152.467 2759.08 157.8 2752.15 161.8C2745.35 165.667 2737.68 167.6 2729.15 167.6H2693.75V219H2668.35ZM2749.55 219L2713.95 155.8L2740.75 150.8L2780.35 219.2L2749.55 219ZM2693.75 145H2729.35C2733.22 145 2736.55 144.133 2739.35 142.4C2742.28 140.533 2744.55 138 2746.15 134.8C2747.75 131.6 2748.55 128.067 2748.55 124.2C2748.55 119.8 2747.55 116 2745.55 112.8C2743.55 109.6 2740.75 107.067 2737.15 105.2C2733.55 103.333 2729.42 102.4 2724.75 102.4H2693.75V145ZM2848.9 221C2837.83 221 2828.03 218.667 2819.5 214C2811.1 209.333 2804.5 203 2799.7 195C2795.03 186.867 2792.7 177.6 2792.7 167.2C2792.7 158.933 2794.03 151.4 2796.7 144.6C2799.36 137.8 2803.03 131.933 2807.7 127C2812.5 121.933 2818.16 118.067 2824.7 115.4C2831.36 112.6 2838.63 111.2 2846.5 111.2C2853.43 111.2 2859.9 112.533 2865.9 115.2C2871.9 117.867 2877.1 121.533 2881.5 126.2C2885.9 130.733 2889.23 136.2 2891.5 142.6C2893.9 148.867 2895.03 155.733 2894.9 163.2L2894.7 171.8H2809.3L2804.7 155H2874.1L2870.9 158.4V154C2870.5 149.867 2869.16 146.267 2866.9 143.2C2864.63 140 2861.7 137.533 2858.1 135.8C2854.63 133.933 2850.76 133 2846.5 133C2839.96 133 2834.43 134.267 2829.9 136.8C2825.5 139.333 2822.16 143 2819.9 147.8C2817.63 152.467 2816.5 158.333 2816.5 165.4C2816.5 172.2 2817.9 178.133 2820.7 183.2C2823.63 188.267 2827.7 192.2 2832.9 195C2838.23 197.667 2844.43 199 2851.5 199C2856.43 199 2860.96 198.2 2865.1 196.6C2869.23 195 2873.7 192.133 2878.5 188L2890.7 205C2887.1 208.333 2882.96 211.2 2878.3 213.6C2873.76 215.867 2868.96 217.667 2863.9 219C2858.83 220.333 2853.83 221 2848.9 221ZM2916.69 263V113.6H2940.89L2941.29 137.6L2937.09 135.8C2937.89 131.667 2940.15 127.8 2943.89 124.2C2947.62 120.467 2952.15 117.467 2957.49 115.2C2962.95 112.933 2968.62 111.8 2974.49 111.8C2983.82 111.8 2992.09 114.133 2999.29 118.8C3006.62 123.467 3012.35 129.867 3016.49 138C3020.75 146.133 3022.89 155.533 3022.89 166.2C3022.89 176.733 3020.75 186.133 3016.49 194.4C3012.35 202.533 3006.62 209 2999.29 213.8C2992.09 218.467 2983.95 220.8 2974.89 220.8C2968.75 220.8 2962.82 219.6 2957.09 217.2C2951.49 214.8 2946.69 211.667 2942.69 207.8C2938.82 203.933 2936.42 199.867 2935.49 195.6L2941.49 192.8V263H2916.69ZM2969.89 199C2975.49 199 2980.49 197.6 2984.89 194.8C2989.29 192 2992.69 188.133 2995.09 183.2C2997.62 178.267 2998.89 172.6 2998.89 166.2C2998.89 159.8 2997.69 154.2 2995.29 149.4C2992.89 144.467 2989.49 140.6 2985.09 137.8C2980.69 135 2975.62 133.6 2969.89 133.6C2964.02 133.6 2958.89 135 2954.49 137.8C2950.22 140.467 2946.82 144.267 2944.29 149.2C2941.75 154.133 2940.49 159.8 2940.49 166.2C2940.49 172.6 2941.75 178.267 2944.29 183.2C2946.82 188.133 2950.22 192 2954.49 194.8C2958.89 197.6 2964.02 199 2969.89 199ZM3108 219V79H3166.2C3174.2 79 3181.4 80.9333 3187.8 84.8C3194.33 88.6667 3199.53 93.9333 3203.4 100.6C3207.27 107.267 3209.2 114.733 3209.2 123C3209.2 131.4 3207.27 139 3203.4 145.8C3199.53 152.467 3194.33 157.8 3187.8 161.8C3181.4 165.8 3174.2 167.8 3166.2 167.8H3134V219H3108ZM3134 143.8H3164.4C3167.73 143.8 3170.73 142.867 3173.4 141C3176.2 139.133 3178.4 136.667 3180 133.6C3181.73 130.533 3182.6 127.067 3182.6 123.2C3182.6 119.333 3181.73 115.933 3180 113C3178.4 109.933 3176.2 107.533 3173.4 105.8C3170.73 103.933 3167.73 103 3164.4 103H3134V143.8ZM3278.56 221C3268.02 221 3258.62 218.667 3250.36 214C3242.09 209.2 3235.56 202.667 3230.76 194.4C3225.96 186.133 3223.56 176.733 3223.56 166.2C3223.56 155.667 3225.96 146.267 3230.76 138C3235.56 129.733 3242.09 123.267 3250.36 118.6C3258.62 113.8 3268.02 111.4 3278.56 111.4C3288.96 111.4 3298.29 113.8 3306.56 118.6C3314.82 123.267 3321.29 129.733 3325.96 138C3330.76 146.267 3333.16 155.667 3333.16 166.2C3333.16 176.733 3330.76 186.133 3325.96 194.4C3321.29 202.667 3314.82 209.2 3306.56 214C3298.29 218.667 3288.96 221 3278.56 221ZM3278.56 199.2C3284.29 199.2 3289.36 197.733 3293.76 194.8C3298.29 191.867 3301.82 187.933 3304.36 183C3307.02 178.067 3308.29 172.467 3308.16 166.2C3308.29 159.8 3307.02 154.133 3304.36 149.2C3301.82 144.267 3298.29 140.4 3293.76 137.6C3289.36 134.667 3284.29 133.2 3278.56 133.2C3272.82 133.2 3267.62 134.667 3262.96 137.6C3258.42 140.4 3254.89 144.333 3252.36 149.4C3249.82 154.333 3248.56 159.933 3248.56 166.2C3248.56 172.467 3249.82 178.067 3252.36 183C3254.89 187.933 3258.42 191.867 3262.96 194.8C3267.62 197.733 3272.82 199.2 3278.56 199.2ZM3355.16 219V113.6H3379.36L3379.76 147.2L3376.36 139.6C3377.83 134.267 3380.36 129.467 3383.96 125.2C3387.56 120.933 3391.7 117.6 3396.36 115.2C3401.16 112.667 3406.16 111.4 3411.36 111.4C3413.63 111.4 3415.76 111.6 3417.76 112C3419.9 112.4 3421.63 112.867 3422.96 113.4L3416.36 140.4C3414.9 139.6 3413.1 138.933 3410.96 138.4C3408.83 137.867 3406.7 137.6 3404.56 137.6C3401.23 137.6 3398.03 138.267 3394.96 139.6C3392.03 140.8 3389.43 142.533 3387.16 144.8C3384.9 147.067 3383.1 149.733 3381.76 152.8C3380.56 155.733 3379.96 159.067 3379.96 162.8V219H3355.16ZM3454.65 219V86.8H3479.25V219H3454.65ZM3433.85 136.4V113.6H3502.25V136.4H3433.85ZM3559.81 221C3551.14 221 3543.27 218.6 3536.21 213.8C3529.14 209 3523.47 202.467 3519.21 194.2C3514.94 185.933 3512.81 176.533 3512.81 166C3512.81 155.467 3514.94 146.067 3519.21 137.8C3523.47 129.533 3529.27 123.067 3536.61 118.4C3543.94 113.733 3552.21 111.4 3561.41 111.4C3566.74 111.4 3571.61 112.2 3576.01 113.8C3580.41 115.267 3584.27 117.4 3587.61 120.2C3590.94 123 3593.67 126.2 3595.81 129.8C3598.07 133.4 3599.61 137.267 3600.41 141.4L3595.01 140V113.6H3619.81V219H3594.81V193.8L3600.61 192.8C3599.67 196.4 3597.94 199.933 3595.41 203.4C3593.01 206.733 3589.94 209.733 3586.21 212.4C3582.61 214.933 3578.54 217 3574.01 218.6C3569.61 220.2 3564.87 221 3559.81 221ZM3566.61 199.2C3572.34 199.2 3577.41 197.8 3581.81 195C3586.21 192.2 3589.61 188.333 3592.01 183.4C3594.54 178.333 3595.81 172.533 3595.81 166C3595.81 159.6 3594.54 153.933 3592.01 149C3589.61 144.067 3586.21 140.2 3581.81 137.4C3577.41 134.6 3572.34 133.2 3566.61 133.2C3560.87 133.2 3555.81 134.6 3551.41 137.4C3547.14 140.2 3543.81 144.067 3541.41 149C3539.01 153.933 3537.81 159.6 3537.81 166C3537.81 172.533 3539.01 178.333 3541.41 183.4C3543.81 188.333 3547.14 192.2 3551.41 195C3555.81 197.8 3560.87 199.2 3566.61 199.2ZM3648.53 219V71H3673.33V219H3648.53Z" fill="#165C7D"/>
<path d="M4740.43 219V79H4801.23C4809.63 79 4817.3 81 4824.23 85C4831.16 88.8667 4836.63 94.2 4840.63 101C4844.76 107.667 4846.83 115.2 4846.83 123.6C4846.83 131.6 4844.76 139 4840.63 145.8C4836.63 152.467 4831.16 157.8 4824.23 161.8C4817.43 165.667 4809.76 167.6 4801.23 167.6H4765.83V219H4740.43ZM4821.63 219L4786.03 155.8L4812.83 150.8L4852.43 219.2L4821.63 219ZM4765.83 145H4801.43C4805.3 145 4808.63 144.133 4811.43 142.4C4814.36 140.533 4816.63 138 4818.23 134.8C4819.83 131.6 4820.63 128.067 4820.63 124.2C4820.63 119.8 4819.63 116 4817.63 112.8C4815.63 109.6 4812.83 107.067 4809.23 105.2C4805.63 103.333 4801.5 102.4 4796.83 102.4H4765.83V145ZM4920.98 221C4909.91 221 4900.11 218.667 4891.58 214C4883.18 209.333 4876.58 203 4871.78 195C4867.11 186.867 4864.78 177.6 4864.78 167.2C4864.78 158.933 4866.11 151.4 4868.78 144.6C4871.44 137.8 4875.11 131.933 4879.78 127C4884.58 121.933 4890.24 118.067 4896.78 115.4C4903.44 112.6 4910.71 111.2 4918.58 111.2C4925.51 111.2 4931.98 112.533 4937.98 115.2C4943.98 117.867 4949.18 121.533 4953.58 126.2C4957.98 130.733 4961.31 136.2 4963.58 142.6C4965.98 148.867 4967.11 155.733 4966.98 163.2L4966.78 171.8H4881.38L4876.78 155H4946.18L4942.98 158.4V154C4942.58 149.867 4941.24 146.267 4938.98 143.2C4936.71 140 4933.78 137.533 4930.18 135.8C4926.71 133.933 4922.84 133 4918.58 133C4912.04 133 4906.51 134.267 4901.98 136.8C4897.58 139.333 4894.24 143 4891.98 147.8C4889.71 152.467 4888.58 158.333 4888.58 165.4C4888.58 172.2 4889.98 178.133 4892.78 183.2C4895.71 188.267 4899.78 192.2 4904.98 195C4910.31 197.667 4916.51 199 4923.58 199C4928.51 199 4933.04 198.2 4937.18 196.6C4941.31 195 4945.78 192.133 4950.58 188L4962.78 205C4959.18 208.333 4955.04 211.2 4950.38 213.6C4945.84 215.867 4941.04 217.667 4935.98 219C4930.91 220.333 4925.91 221 4920.98 221ZM4988.76 263V113.6H5012.96L5013.36 137.6L5009.16 135.8C5009.96 131.667 5012.23 127.8 5015.96 124.2C5019.7 120.467 5024.23 117.467 5029.56 115.2C5035.03 112.933 5040.7 111.8 5046.56 111.8C5055.9 111.8 5064.16 114.133 5071.36 118.8C5078.7 123.467 5084.43 129.867 5088.56 138C5092.83 146.133 5094.96 155.533 5094.96 166.2C5094.96 176.733 5092.83 186.133 5088.56 194.4C5084.43 202.533 5078.7 209 5071.36 213.8C5064.16 218.467 5056.03 220.8 5046.96 220.8C5040.83 220.8 5034.9 219.6 5029.16 217.2C5023.56 214.8 5018.76 211.667 5014.76 207.8C5010.9 203.933 5008.5 199.867 5007.56 195.6L5013.56 192.8V263H4988.76ZM5041.96 199C5047.56 199 5052.56 197.6 5056.96 194.8C5061.36 192 5064.76 188.133 5067.16 183.2C5069.7 178.267 5070.96 172.6 5070.96 166.2C5070.96 159.8 5069.76 154.2 5067.36 149.4C5064.96 144.467 5061.56 140.6 5057.16 137.8C5052.76 135 5047.7 133.6 5041.96 133.6C5036.1 133.6 5030.96 135 5026.56 137.8C5022.3 140.467 5018.9 144.267 5016.36 149.2C5013.83 154.133 5012.56 159.8 5012.56 166.2C5012.56 172.6 5013.83 178.267 5016.36 183.2C5018.9 188.133 5022.3 192 5026.56 194.8C5030.96 197.6 5036.1 199 5041.96 199ZM5121.29 219V79H5145.89L5196.89 162L5182.49 161.8L5234.09 79H5257.49V219H5231.69V166.4C5231.69 154.4 5231.95 143.6 5232.49 134C5233.15 124.4 5234.22 114.867 5235.69 105.4L5238.89 114L5195.49 181H5182.29L5140.29 114.6L5143.09 105.4C5144.55 114.333 5145.55 123.533 5146.09 133C5146.75 142.333 5147.09 153.467 5147.09 166.4V219H5121.29ZM5306.72 265L5329.12 213.2L5329.32 229.6L5277.32 113.6H5305.72L5334.72 182.4C5335.65 184.133 5336.58 186.467 5337.52 189.4C5338.45 192.2 5339.25 195 5339.92 197.8L5334.92 199.4C5335.85 196.867 5336.85 194.2 5337.92 191.4C5338.98 188.467 5339.98 185.467 5340.92 182.4L5365.72 113.6H5394.32L5350.32 219L5332.32 265H5306.72ZM5414.06 219V79H5505.66V102.6H5439.66V195.4H5506.46V219H5414.06ZM5426.06 159V135.8H5495.46V159H5426.06ZM5534.86 219V71H5559.66V219H5534.86ZM5611.57 186.8L5606.77 163.8L5656.77 113.6H5689.57L5611.57 186.8ZM5588.57 219V71H5613.17V219H5588.57ZM5659.77 219L5620.97 172L5638.37 157.2L5690.17 219H5659.77ZM5741.65 221C5732.98 221 5725.12 218.6 5718.05 213.8C5710.98 209 5705.32 202.467 5701.05 194.2C5696.78 185.933 5694.65 176.533 5694.65 166C5694.65 155.467 5696.78 146.067 5701.05 137.8C5705.32 129.533 5711.12 123.067 5718.45 118.4C5725.78 113.733 5734.05 111.4 5743.25 111.4C5748.58 111.4 5753.45 112.2 5757.85 113.8C5762.25 115.267 5766.12 117.4 5769.45 120.2C5772.78 123 5775.52 126.2 5777.65 129.8C5779.92 133.4 5781.45 137.267 5782.25 141.4L5776.85 140V113.6H5801.65V219H5776.65V193.8L5782.45 192.8C5781.52 196.4 5779.78 199.933 5777.25 203.4C5774.85 206.733 5771.78 209.733 5768.05 212.4C5764.45 214.933 5760.38 217 5755.85 218.6C5751.45 220.2 5746.72 221 5741.65 221ZM5748.45 199.2C5754.18 199.2 5759.25 197.8 5763.65 195C5768.05 192.2 5771.45 188.333 5773.85 183.4C5776.38 178.333 5777.65 172.533 5777.65 166C5777.65 159.6 5776.38 153.933 5773.85 149C5771.45 144.067 5768.05 140.2 5763.65 137.4C5759.25 134.6 5754.18 133.2 5748.45 133.2C5742.72 133.2 5737.65 134.6 5733.25 137.4C5728.98 140.2 5725.65 144.067 5723.25 149C5720.85 153.933 5719.65 159.6 5719.65 166C5719.65 172.533 5720.85 178.333 5723.25 183.4C5725.65 188.333 5728.98 192.2 5733.25 195C5737.65 197.8 5742.72 199.2 5748.45 199.2ZM5843.83 265L5866.23 213.2L5866.43 229.6L5814.43 113.6H5842.83L5871.83 182.4C5872.76 184.133 5873.69 186.467 5874.63 189.4C5875.56 192.2 5876.36 195 5877.03 197.8L5872.03 199.4C5872.96 196.867 5873.96 194.2 5875.03 191.4C5876.09 188.467 5877.09 185.467 5878.03 182.4L5902.83 113.6H5931.43L5887.43 219L5869.43 265H5843.83Z" fill="#165C7D"/>
<path d="M3874.93 133.929C3871.02 137.834 3871.02 144.166 3874.93 148.071L3938.57 211.711C3942.47 215.616 3948.81 215.616 3952.71 211.711C3956.62 207.805 3956.62 201.474 3952.71 197.569L3896.14 141L3952.71 84.4315C3956.62 80.5262 3956.62 74.1946 3952.71 70.2893C3948.81 66.3841 3942.47 66.3841 3938.57 70.2893L3874.93 133.929ZM4527 131L3882 131V151L4527 151V131Z" fill="#165C7D"/>
<path d="M3017.07 426.929C3013.17 423.024 3006.83 423.024 3002.93 426.929L2939.29 490.569C2935.38 494.474 2935.38 500.805 2939.29 504.711C2943.19 508.616 2949.53 508.616 2953.43 504.711L3010 448.142L3066.57 504.711C3070.47 508.616 3076.81 508.616 3080.71 504.711C3084.62 500.805 3084.62 494.474 3080.71 490.569L3017.07 426.929ZM3020 688L3020 434L3000 434L3000 688L3020 688Z" fill="#165C7D"/>
<path d="M2544.88 1552C2536.75 1552 2529.28 1551 2522.48 1549C2515.68 1546.87 2509.55 1543.73 2504.08 1539.6C2498.61 1535.47 2493.75 1530.47 2489.48 1524.6L2506.48 1505.4C2513.01 1514.47 2519.41 1520.73 2525.68 1524.2C2531.95 1527.67 2539.01 1529.4 2546.88 1529.4C2551.41 1529.4 2555.55 1528.73 2559.28 1527.4C2563.01 1525.93 2565.95 1524 2568.08 1521.6C2570.21 1519.07 2571.28 1516.2 2571.28 1513C2571.28 1510.73 2570.81 1508.67 2569.88 1506.8C2569.08 1504.8 2567.81 1503.07 2566.08 1501.6C2564.35 1500 2562.21 1498.53 2559.68 1497.2C2557.15 1495.87 2554.28 1494.73 2551.08 1493.8C2547.88 1492.87 2544.35 1492 2540.48 1491.2C2533.15 1489.73 2526.75 1487.8 2521.28 1485.4C2515.81 1482.87 2511.21 1479.8 2507.48 1476.2C2503.75 1472.47 2501.01 1468.33 2499.28 1463.8C2497.55 1459.13 2496.68 1453.87 2496.68 1448C2496.68 1442.13 2497.95 1436.73 2500.48 1431.8C2503.15 1426.87 2506.75 1422.6 2511.28 1419C2515.81 1415.4 2521.08 1412.6 2527.08 1410.6C2533.08 1408.6 2539.55 1407.6 2546.48 1407.6C2554.35 1407.6 2561.35 1408.53 2567.48 1410.4C2573.75 1412.27 2579.21 1415.07 2583.88 1418.8C2588.68 1422.4 2592.61 1426.8 2595.68 1432L2578.48 1449C2575.81 1444.87 2572.81 1441.47 2569.48 1438.8C2566.15 1436 2562.55 1433.93 2558.68 1432.6C2554.81 1431.13 2550.75 1430.4 2546.48 1430.4C2541.68 1430.4 2537.48 1431.07 2533.88 1432.4C2530.41 1433.73 2527.68 1435.67 2525.68 1438.2C2523.68 1440.6 2522.68 1443.53 2522.68 1447C2522.68 1449.67 2523.28 1452.07 2524.48 1454.2C2525.68 1456.2 2527.35 1458 2529.48 1459.6C2531.75 1461.2 2534.61 1462.6 2538.08 1463.8C2541.55 1465 2545.48 1466.07 2549.88 1467C2557.21 1468.47 2563.81 1470.47 2569.68 1473C2575.55 1475.4 2580.55 1478.33 2584.68 1481.8C2588.81 1485.13 2591.95 1489 2594.08 1493.4C2596.21 1497.67 2597.28 1502.47 2597.28 1507.8C2597.28 1517 2595.08 1524.93 2590.68 1531.6C2586.41 1538.13 2580.35 1543.2 2572.48 1546.8C2564.61 1550.27 2555.41 1552 2544.88 1552ZM2661.27 1552C2652.6 1552 2644.74 1549.6 2637.67 1544.8C2630.6 1540 2624.94 1533.47 2620.67 1525.2C2616.4 1516.93 2614.27 1507.53 2614.27 1497C2614.27 1486.47 2616.4 1477.07 2620.67 1468.8C2624.94 1460.53 2630.74 1454.07 2638.07 1449.4C2645.4 1444.73 2653.67 1442.4 2662.87 1442.4C2668.2 1442.4 2673.07 1443.2 2677.47 1444.8C2681.87 1446.27 2685.74 1448.4 2689.07 1451.2C2692.4 1454 2695.14 1457.2 2697.27 1460.8C2699.54 1464.4 2701.07 1468.27 2701.87 1472.4L2696.47 1471V1444.6H2721.27V1550H2696.27V1524.8L2702.07 1523.8C2701.14 1527.4 2699.4 1530.93 2696.87 1534.4C2694.47 1537.73 2691.4 1540.73 2687.67 1543.4C2684.07 1545.93 2680 1548 2675.47 1549.6C2671.07 1551.2 2666.34 1552 2661.27 1552ZM2668.07 1530.2C2673.8 1530.2 2678.87 1528.8 2683.27 1526C2687.67 1523.2 2691.07 1519.33 2693.47 1514.4C2696 1509.33 2697.27 1503.53 2697.27 1497C2697.27 1490.6 2696 1484.93 2693.47 1480C2691.07 1475.07 2687.67 1471.2 2683.27 1468.4C2678.87 1465.6 2673.8 1464.2 2668.07 1464.2C2662.34 1464.2 2657.27 1465.6 2652.87 1468.4C2648.6 1471.2 2645.27 1475.07 2642.87 1480C2640.47 1484.93 2639.27 1490.6 2639.27 1497C2639.27 1503.53 2640.47 1509.33 2642.87 1514.4C2645.27 1519.33 2648.6 1523.2 2652.87 1526C2657.27 1528.8 2662.34 1530.2 2668.07 1530.2ZM2749.99 1550V1402H2774.79V1550H2749.99ZM2851.14 1552C2840.08 1552 2830.28 1549.67 2821.74 1545C2813.34 1540.33 2806.74 1534 2801.94 1526C2797.28 1517.87 2794.94 1508.6 2794.94 1498.2C2794.94 1489.93 2796.28 1482.4 2798.94 1475.6C2801.61 1468.8 2805.28 1462.93 2809.94 1458C2814.74 1452.93 2820.41 1449.07 2826.94 1446.4C2833.61 1443.6 2840.88 1442.2 2848.74 1442.2C2855.68 1442.2 2862.14 1443.53 2868.14 1446.2C2874.14 1448.87 2879.34 1452.53 2883.74 1457.2C2888.14 1461.73 2891.48 1467.2 2893.74 1473.6C2896.14 1479.87 2897.28 1486.73 2897.14 1494.2L2896.94 1502.8H2811.54L2806.94 1486H2876.34L2873.14 1489.4V1485C2872.74 1480.87 2871.41 1477.27 2869.14 1474.2C2866.88 1471 2863.94 1468.53 2860.34 1466.8C2856.88 1464.93 2853.01 1464 2848.74 1464C2842.21 1464 2836.68 1465.27 2832.14 1467.8C2827.74 1470.33 2824.41 1474 2822.14 1478.8C2819.88 1483.47 2818.74 1489.33 2818.74 1496.4C2818.74 1503.2 2820.14 1509.13 2822.94 1514.2C2825.88 1519.27 2829.94 1523.2 2835.14 1526C2840.48 1528.67 2846.68 1530 2853.74 1530C2858.68 1530 2863.21 1529.2 2867.34 1527.6C2871.48 1526 2875.94 1523.13 2880.74 1519L2892.94 1536C2889.34 1539.33 2885.21 1542.2 2880.54 1544.6C2876.01 1546.87 2871.21 1548.67 2866.14 1550C2861.08 1551.33 2856.08 1552 2851.14 1552ZM2954.13 1552C2944.8 1552 2936.4 1550.47 2928.93 1547.4C2921.6 1544.2 2915.6 1539.67 2910.93 1533.8L2926.93 1520C2930.93 1524.53 2935.4 1527.8 2940.33 1529.8C2945.26 1531.8 2950.46 1532.8 2955.93 1532.8C2958.2 1532.8 2960.2 1532.53 2961.93 1532C2963.8 1531.47 2965.4 1530.67 2966.73 1529.6C2968.06 1528.53 2969.06 1527.33 2969.73 1526C2970.53 1524.53 2970.93 1522.93 2970.93 1521.2C2970.93 1518 2969.73 1515.47 2967.33 1513.6C2966 1512.67 2963.86 1511.67 2960.93 1510.6C2958.13 1509.53 2954.46 1508.47 2949.93 1507.4C2942.73 1505.53 2936.73 1503.4 2931.93 1501C2927.13 1498.47 2923.4 1495.67 2920.73 1492.6C2918.46 1490.07 2916.73 1487.2 2915.53 1484C2914.46 1480.8 2913.93 1477.33 2913.93 1473.6C2913.93 1468.93 2914.93 1464.73 2916.93 1461C2919.06 1457.13 2921.93 1453.8 2925.53 1451C2929.13 1448.2 2933.33 1446.07 2938.13 1444.6C2942.93 1443.13 2947.93 1442.4 2953.13 1442.4C2958.46 1442.4 2963.6 1443.07 2968.53 1444.4C2973.6 1445.73 2978.26 1447.67 2982.53 1450.2C2986.93 1452.6 2990.66 1455.53 2993.73 1459L2980.13 1474C2977.6 1471.6 2974.8 1469.47 2971.73 1467.6C2968.8 1465.73 2965.8 1464.27 2962.73 1463.2C2959.66 1462 2956.8 1461.4 2954.13 1461.4C2951.6 1461.4 2949.33 1461.67 2947.33 1462.2C2945.33 1462.6 2943.66 1463.27 2942.33 1464.2C2941 1465.13 2939.93 1466.33 2939.13 1467.8C2938.46 1469.13 2938.13 1470.73 2938.13 1472.6C2938.26 1474.2 2938.66 1475.73 2939.33 1477.2C2940.13 1478.53 2941.2 1479.67 2942.53 1480.6C2944 1481.53 2946.2 1482.6 2949.13 1483.8C2952.06 1485 2955.86 1486.13 2960.53 1487.2C2967.06 1488.93 2972.53 1490.87 2976.93 1493C2981.33 1495.13 2984.8 1497.6 2987.33 1500.4C2989.86 1502.8 2991.66 1505.6 2992.73 1508.8C2993.8 1512 2994.33 1515.53 2994.33 1519.4C2994.33 1525.67 2992.53 1531.27 2988.93 1536.2C2985.46 1541.13 2980.66 1545 2974.53 1547.8C2968.53 1550.6 2961.73 1552 2954.13 1552ZM3079.19 1550V1410H3139.99C3148.39 1410 3156.06 1412 3162.99 1416C3169.92 1419.87 3175.39 1425.2 3179.39 1432C3183.52 1438.67 3185.59 1446.2 3185.59 1454.6C3185.59 1462.6 3183.52 1470 3179.39 1476.8C3175.39 1483.47 3169.92 1488.8 3162.99 1492.8C3156.19 1496.67 3148.52 1498.6 3139.99 1498.6H3104.59V1550H3079.19ZM3160.39 1550L3124.79 1486.8L3151.59 1481.8L3191.19 1550.2L3160.39 1550ZM3104.59 1476H3140.19C3144.06 1476 3147.39 1475.13 3150.19 1473.4C3153.12 1471.53 3155.39 1469 3156.99 1465.8C3158.59 1462.6 3159.39 1459.07 3159.39 1455.2C3159.39 1450.8 3158.39 1447 3156.39 1443.8C3154.39 1440.6 3151.59 1438.07 3147.99 1436.2C3144.39 1434.33 3140.26 1433.4 3135.59 1433.4H3104.59V1476ZM3259.74 1552C3248.67 1552 3238.87 1549.67 3230.34 1545C3221.94 1540.33 3215.34 1534 3210.54 1526C3205.87 1517.87 3203.54 1508.6 3203.54 1498.2C3203.54 1489.93 3204.87 1482.4 3207.54 1475.6C3210.2 1468.8 3213.87 1462.93 3218.54 1458C3223.34 1452.93 3229 1449.07 3235.54 1446.4C3242.2 1443.6 3249.47 1442.2 3257.34 1442.2C3264.27 1442.2 3270.74 1443.53 3276.74 1446.2C3282.74 1448.87 3287.94 1452.53 3292.34 1457.2C3296.74 1461.73 3300.07 1467.2 3302.34 1473.6C3304.74 1479.87 3305.87 1486.73 3305.74 1494.2L3305.54 1502.8H3220.14L3215.54 1486H3284.94L3281.74 1489.4V1485C3281.34 1480.87 3280 1477.27 3277.74 1474.2C3275.47 1471 3272.54 1468.53 3268.94 1466.8C3265.47 1464.93 3261.6 1464 3257.34 1464C3250.8 1464 3245.27 1465.27 3240.74 1467.8C3236.34 1470.33 3233 1474 3230.74 1478.8C3228.47 1483.47 3227.34 1489.33 3227.34 1496.4C3227.34 1503.2 3228.74 1509.13 3231.54 1514.2C3234.47 1519.27 3238.54 1523.2 3243.74 1526C3249.07 1528.67 3255.27 1530 3262.34 1530C3267.27 1530 3271.8 1529.2 3275.94 1527.6C3280.07 1526 3284.54 1523.13 3289.34 1519L3301.54 1536C3297.94 1539.33 3293.8 1542.2 3289.14 1544.6C3284.6 1546.87 3279.8 1548.67 3274.74 1550C3269.67 1551.33 3264.67 1552 3259.74 1552ZM3327.53 1594V1444.6H3351.73L3352.13 1468.6L3347.93 1466.8C3348.73 1462.67 3350.99 1458.8 3354.73 1455.2C3358.46 1451.47 3362.99 1448.47 3368.33 1446.2C3373.79 1443.93 3379.46 1442.8 3385.33 1442.8C3394.66 1442.8 3402.93 1445.13 3410.13 1449.8C3417.46 1454.47 3423.19 1460.87 3427.33 1469C3431.59 1477.13 3433.73 1486.53 3433.73 1497.2C3433.73 1507.73 3431.59 1517.13 3427.33 1525.4C3423.19 1533.53 3417.46 1540 3410.13 1544.8C3402.93 1549.47 3394.79 1551.8 3385.73 1551.8C3379.59 1551.8 3373.66 1550.6 3367.93 1548.2C3362.33 1545.8 3357.53 1542.67 3353.53 1538.8C3349.66 1534.93 3347.26 1530.87 3346.33 1526.6L3352.33 1523.8V1594H3327.53ZM3380.73 1530C3386.33 1530 3391.33 1528.6 3395.73 1525.8C3400.13 1523 3403.53 1519.13 3405.93 1514.2C3408.46 1509.27 3409.73 1503.6 3409.73 1497.2C3409.73 1490.8 3408.53 1485.2 3406.13 1480.4C3403.73 1475.47 3400.33 1471.6 3395.93 1468.8C3391.53 1466 3386.46 1464.6 3380.73 1464.6C3374.86 1464.6 3369.73 1466 3365.33 1468.8C3361.06 1471.47 3357.66 1475.27 3355.13 1480.2C3352.59 1485.13 3351.33 1490.8 3351.33 1497.2C3351.33 1503.6 3352.59 1509.27 3355.13 1514.2C3357.66 1519.13 3361.06 1523 3365.33 1525.8C3369.73 1528.6 3374.86 1530 3380.73 1530ZM3490.85 1552C3481.52 1552 3473.12 1550.47 3465.65 1547.4C3458.32 1544.2 3452.32 1539.67 3447.65 1533.8L3463.65 1520C3467.65 1524.53 3472.12 1527.8 3477.05 1529.8C3481.98 1531.8 3487.18 1532.8 3492.65 1532.8C3494.92 1532.8 3496.92 1532.53 3498.65 1532C3500.52 1531.47 3502.12 1530.67 3503.45 1529.6C3504.78 1528.53 3505.78 1527.33 3506.45 1526C3507.25 1524.53 3507.65 1522.93 3507.65 1521.2C3507.65 1518 3506.45 1515.47 3504.05 1513.6C3502.72 1512.67 3500.58 1511.67 3497.65 1510.6C3494.85 1509.53 3491.18 1508.47 3486.65 1507.4C3479.45 1505.53 3473.45 1503.4 3468.65 1501C3463.85 1498.47 3460.12 1495.67 3457.45 1492.6C3455.18 1490.07 3453.45 1487.2 3452.25 1484C3451.18 1480.8 3450.65 1477.33 3450.65 1473.6C3450.65 1468.93 3451.65 1464.73 3453.65 1461C3455.78 1457.13 3458.65 1453.8 3462.25 1451C3465.85 1448.2 3470.05 1446.07 3474.85 1444.6C3479.65 1443.13 3484.65 1442.4 3489.85 1442.4C3495.18 1442.4 3500.32 1443.07 3505.25 1444.4C3510.32 1445.73 3514.98 1447.67 3519.25 1450.2C3523.65 1452.6 3527.38 1455.53 3530.45 1459L3516.85 1474C3514.32 1471.6 3511.52 1469.47 3508.45 1467.6C3505.52 1465.73 3502.52 1464.27 3499.45 1463.2C3496.38 1462 3493.52 1461.4 3490.85 1461.4C3488.32 1461.4 3486.05 1461.67 3484.05 1462.2C3482.05 1462.6 3480.38 1463.27 3479.05 1464.2C3477.72 1465.13 3476.65 1466.33 3475.85 1467.8C3475.18 1469.13 3474.85 1470.73 3474.85 1472.6C3474.98 1474.2 3475.38 1475.73 3476.05 1477.2C3476.85 1478.53 3477.92 1479.67 3479.25 1480.6C3480.72 1481.53 3482.92 1482.6 3485.85 1483.8C3488.78 1485 3492.58 1486.13 3497.25 1487.2C3503.78 1488.93 3509.25 1490.87 3513.65 1493C3518.05 1495.13 3521.52 1497.6 3524.05 1500.4C3526.58 1502.8 3528.38 1505.6 3529.45 1508.8C3530.52 1512 3531.05 1515.53 3531.05 1519.4C3531.05 1525.67 3529.25 1531.27 3525.65 1536.2C3522.18 1541.13 3517.38 1545 3511.25 1547.8C3505.25 1550.6 3498.45 1552 3490.85 1552Z" fill="#165C7D"/>
<path d="M3010 1070.29C3065.87 1070.29 3111.14 1025.01 3111.14 969.143C3111.14 913.277 3065.87 868 3010 868C2954.13 868 2908.86 913.277 2908.86 969.143C2908.86 1025.01 2954.13 1070.29 3010 1070.29ZM3080.8 1095.57H3067.6C3050.06 1103.63 3030.54 1108.21 3010 1108.21C2989.46 1108.21 2970.02 1103.63 2952.4 1095.57H2939.2C2880.57 1095.57 2833 1143.14 2833 1201.77V1234.64C2833 1255.58 2849.99 1272.57 2870.93 1272.57H3149.07C3170.01 1272.57 3187 1255.58 3187 1234.64V1201.77C3187 1143.14 3139.43 1095.57 3080.8 1095.57Z" fill="#165C7D"/>
<path d="M3618.12 1096.4C3615.58 1101.3 3617.5 1107.34 3622.4 1109.88L3702.31 1151.28C3707.22 1153.82 3713.25 1151.9 3715.79 1147C3718.33 1142.1 3716.42 1136.06 3711.51 1133.52L3640.48 1096.72L3677.28 1025.69C3679.82 1020.78 3677.9 1014.75 3673 1012.21C3668.1 1009.67 3662.06 1011.58 3659.52 1016.49L3618.12 1096.4ZM3630.03 1110.53L5731.03 443.531L5724.97 424.469L3623.97 1091.47L3630.03 1110.53Z" fill="#165C7D"/>
<path d="M2379.88 1096.4C2382.42 1101.3 2380.5 1107.34 2375.6 1109.88L2295.69 1151.28C2290.78 1153.82 2284.75 1151.9 2282.21 1147C2279.67 1142.1 2281.58 1136.06 2286.49 1133.52L2357.52 1096.72L2320.72 1025.69C2318.18 1020.78 2320.1 1014.75 2325 1012.21C2329.9 1009.67 2335.94 1011.58 2338.48 1016.49L2379.88 1096.4ZM2367.97 1110.53L266.974 443.531L273.026 424.469L2374.03 1091.47L2367.97 1110.53Z" fill="#165C7D"/>
</svg>
